<svg xmlns="http://www.w3.org/2000/svg" xmlns:xlink="http://www.w3.org/1999/xlink" version="1.1" width="1000" height="1000" viewBox="0 0 1000 1000" xml:space="preserve">
<desc>Created with Fabric.js 3.5.0</desc>
<defs>
</defs>
<rect x="0" y="0" width="100%" height="100%" fill="#ffffff"/>
<g transform="matrix(2.1853 0 0 2.1853 292.8313 505.5721)" id="OBJEKTS">
<path style="stroke: rgb(255,255,255); stroke-width: 2; stroke-dasharray: none; stroke-linecap: butt; stroke-dashoffset: 0; stroke-linejoin: miter; stroke-miterlimit: 10; is-custom-font: none; font-file-url: none; fill: none; fill-rule: nonzero; opacity: 1;" transform=" translate(-113.2, -197.55)" d="M 75.7 170.6 h 75 c 12.7 0 23 10.3 23 23 v 30.9 l 0 0 h -98 c -12.7 0 -23 -10.3 -23 -23 l 0 0 v -7.9 C 52.7 180.9 63 170.6 75.7 170.6 L 75.7 170.6 z" stroke-linecap="round"/>
</g>
<g transform="matrix(2.1853 0 0 2.1853 495.0446 496.6877)" id="OBJEKTS">
<path style="stroke: none; stroke-width: 1; stroke-dasharray: none; stroke-linecap: butt; stroke-dashoffset: 0; stroke-linejoin: miter; stroke-miterlimit: 4; is-custom-font: none; font-file-url: none; fill: rgb(225,232,246); fill-rule: nonzero; opacity: 1;" transform=" translate(-205.7337, -193.4855)" d="M 276.1 364.7 c 27.6 -9.7 54.2 -26.3 71.7 -50.6 c 21.4 -29.6 19.5 -63.2 23.9 -97.9 c 1.8 -14.1 11.2 -22.2 16.8 -34.6 c 11.8 -26.3 7.6 -65.9 -17.2 -83.8 c -15.3 -11 -30.1 -12.2 -38.4 -31.4 c -4.6 -10.6 -7.2 -22.2 -14.3 -31.3 c -10.2 -13.2 -27.7 -18.4 -44.1 -21 c -19.2 -3 -37.9 -2.3 -57.1 -2.9 c -20.5 -0.6 -41.3 0 -61.2 5.4 c -27 7.4 -56.7 26.7 -61.4 56.2 c -2 12.6 0.6 26.1 -4.2 37.9 c -7.2 17.8 -26.4 23.9 -40.8 34.4 c -15.4 11.3 -25.4 29 -29.8 47.3 c -7.5 31.3 -2 66 12.6 94.4 c 15.6 30.4 40.9 56.3 71.5 71.5 c 24 11.9 57.2 15.4 84.3 17.1 C 218 377.3 248.2 374.5 276.1 364.7 z" stroke-linecap="round"/>
</g>
<g transform="matrix(2.1853 0 0 2.1853 498.0912 536.8039)" id="OBJEKTS">
<path style="stroke: none; stroke-width: 1; stroke-dasharray: none; stroke-linecap: butt; stroke-dashoffset: 0; stroke-linejoin: miter; stroke-miterlimit: 4; is-custom-font: none; font-file-url: none; fill: rgb(230,232,232); fill-rule: nonzero; opacity: 1;" transform=" translate(-207.1275, -211.8422)" d="M 346.6 242.6 c -0.2 -44.7 -12.5 -87.6 -48.9 -116.4 c -44.9 -35.5 -107.6 -35.1 -153.4 -1.9 c -30 21.7 -51 54.3 -62.8 89.4 s -14.8 72.6 -13.6 109.6 l 273 0.9 l 3.4 -37.6 C 345.6 272 346.6 257.3 346.6 242.6 z" stroke-linecap="round"/>
</g>
<g transform="matrix(2.1853 0 0 2.1853 325.611 494.6456)" id="OBJEKTS">
<path style="stroke: rgb(255,255,255); stroke-width: 1; stroke-dasharray: none; stroke-linecap: butt; stroke-dashoffset: 0; stroke-linejoin: miter; stroke-miterlimit: 10; is-custom-font: none; font-file-url: none; fill: none; fill-rule: nonzero; opacity: 0.75;" transform=" translate(-128.2, -192.55)" d="M 90.7 165.6 h 75 c 12.7 0 23 10.3 23 23 v 30.9 l 0 0 h -98 c -12.7 0 -23 -10.3 -23 -23 v -7.9 C 67.7 175.9 78 165.6 90.7 165.6 L 90.7 165.6 z" stroke-linecap="round"/>
</g>
<g transform="matrix(2.1853 0 0 2.1853 493.1151 281.468)" id="OBJEKTS">
<path style="stroke: rgb(255,255,255); stroke-width: 1; stroke-dasharray: none; stroke-linecap: butt; stroke-dashoffset: 0; stroke-linejoin: miter; stroke-miterlimit: 10; is-custom-font: none; font-file-url: none; fill: none; fill-rule: nonzero; opacity: 0.75;" transform=" translate(-204.85, -95)" d="M 152.5 59.4 h 104.7 c 16.8 0 30.5 13.6 30.5 30.4 l 0 0 v 40.8 l 0 0 H 152.5 c -16.8 0 -30.5 -13.6 -30.5 -30.4 l 0 0 V 89.8 C 122 73 135.6 59.4 152.5 59.4 L 152.5 59.4 z" stroke-linecap="round"/>
</g>
<g transform="matrix(2.1853 0 0 2.1853 211.1711 665.8047)" id="OBJEKTS">
<path style="stroke: none; stroke-width: 1; stroke-dasharray: none; stroke-linecap: butt; stroke-dashoffset: 0; stroke-linejoin: miter; stroke-miterlimit: 4; is-custom-font: none; font-file-url: none; fill: rgb(238,80,80); fill-rule: nonzero; opacity: 1;" transform=" translate(-75.8321, -270.8726)" d="M 114.4 316.1 c -0.4 -0.3 -0.8 -0.6 -1.2 -0.9 c -1.4 -1.1 -1.7 -3.1 -1.9 -4.9 c -1.8 -22 1.5 -44.1 0.4 -66.2 c -0.2 -5.3 -4.5 -2.7 -8 -2 c -0.5 0.1 -7.3 1.4 -7.3 0.6 c -0.6 6.3 -1.4 13 -5.6 17.7 c -2.9 3.3 -7 5.1 -10.6 7.6 c -13.6 9.2 -21.5 26.9 -23.4 42.9 c 0 -0.4 -0.1 -0.7 -0.1 -1.1 c -0.3 -3.2 -0.5 -6.4 -0.6 -9.6 c -0.3 -6.7 -0.4 -13.4 -0.3 -20.1 c 0.1 -5 0.7 -10.5 -2.3 -14.8 c -2.6 -3.7 -5.4 -4 -9 -4.3 c -1 -2 -0.8 -5.9 -0.8 -7.7 c 0 -2.9 0.5 -6.1 2.6 -8.3 c 3.4 -3.6 8.7 -1.4 13.1 -2.5 c 9.8 -2.5 6.3 -15 5.7 -22.2 c -0.4 -4.4 -7.4 -4.5 -7 0 c 0.3 3.6 1 7.4 1 11 c 0 2.3 0 3.8 -2.4 4.6 c -1.1 0.1 -2.3 0.1 -3.4 0 c -5.1 0 -9.5 1.1 -12.8 5.2 c -3.6 4.5 -4.2 10.3 -3.6 15.8 c 0.4 4.2 0.6 10 5.7 10.9 c 4.7 0.8 6.2 1.8 6.3 6.8 c 0.1 3.4 -0.2 6.8 -0.2 10.2 c 0 7.7 0.2 15.3 0.8 23 c 0.3 4.4 -0.4 12.3 3.3 15.6 c 1.6 1.5 3.9 1.8 5.9 0.8 c 5.8 0.3 19.6 -0.5 21.1 -0.5 h 17.8 c 3 0 8.2 1 11.1 -0.5 c 1.5 -0.8 4.3 -2.2 5.4 -3.5 C 115.2 318.8 115.2 317.2 114.4 316.1 z" stroke-linecap="round"/>
</g>
<g transform="matrix(2.1853 0 0 2.1853 271.8608 629.3533)" id="OBJEKTS">
<path style="stroke: none; stroke-width: 1; stroke-dasharray: none; stroke-linecap: butt; stroke-dashoffset: 0; stroke-linejoin: miter; stroke-miterlimit: 4; is-custom-font: none; font-file-url: none; fill: rgb(211,80,80); fill-rule: nonzero; opacity: 1;" transform=" translate(-103.6036, -254.1921)" d="M 112 250.5 c 0 -1.8 0 -3.6 -0.1 -5.4 c 0 -0.4 0 -0.7 -0.1 -1 c -0.1 -0.4 -0.2 -0.7 -0.3 -1.1 c -1.3 -2.5 -5.9 -0.3 -7.7 0.5 c -2 1 -3.9 2.2 -5.6 3.6 c -1.1 0.7 -2.1 1.7 -2.7 2.9 c -0.6 1.3 -0.2 3.3 -0.1 4.7 c 0 1 0.3 2.1 0.9 2.9 c 0.6 0.9 1.8 1.2 2.7 0.7 c 0.1 1.1 0.4 2.2 0.9 3.2 c 0.4 0.8 1.2 1.3 2 1.5 c 0.6 0.2 0.5 0.1 0.7 0.6 l 0 0 c 0.1 0.5 0.3 0.9 0.5 1.3 v 0.1 c 0.1 0.3 0.3 0.6 0.6 0.8 c 0.1 0.1 0.3 0.2 0.5 0.3 l 0 0 c 0.3 0.2 0.7 0.3 1.1 0.4 c 1 0.2 2 -0.3 2.6 -1.1 c 0.5 -1 0.6 -2.1 0.4 -3.2 c 0.8 0 1.5 -0.5 1.8 -1.3 c 0.3 -0.9 0.4 -1.9 0.3 -2.8 c 0 -1.1 0 -2.1 -0.1 -3.2 C 112.4 255.2 112 252 112 250.5 z" stroke-linecap="round"/>
</g>
<g transform="matrix(2.1853 0 0 2.1853 238.2346 740.2607)" id="OBJEKTS">
<linearGradient id="SVGID_26" gradientUnits="userSpaceOnUse" gradientTransform="matrix(1 0 0 -1 42 196)" x1="36.352" y1="-114.5988" x2="68.882" y2="-99.7087">
<stop offset="0%" style="stop-color:rgb(238,80,80);stop-opacity: 0.91"/>
<stop offset="56.00000000000001%" style="stop-color:rgb(49,21,115);stop-opacity: 0"/>
</linearGradient>
<path style="stroke: none; stroke-width: 1; stroke-dasharray: none; stroke-linecap: butt; stroke-dashoffset: 0; stroke-linejoin: miter; stroke-miterlimit: 4; is-custom-font: none; font-file-url: none; fill: url(#SVGID_26); fill-rule: nonzero; opacity: 1;" transform=" translate(-88.2162, -304.9434)" d="M 88.9 286.3 c 3.6 2.2 5.7 6.3 5.4 10.6 c -0.4 4.3 -3.9 7.8 -7 10.4 s -7 5.3 -9.1 9.1 c 2.2 -0.3 4.4 -0.4 6.6 -0.5 c 1.9 -0.1 4 0.1 5.1 1.6 s 0.5 3.8 0.8 5.7 c 0.2 0.1 0.5 0.1 0.7 -0.1 c 0.2 0.5 0.1 0.5 0.6 0.5 c 1.8 -0.3 3.3 -1.4 4.1 -3 c 0.7 -1.6 1.1 -3.3 1.3 -5.1 c 0.8 -6.2 1 -12.5 0.7 -18.8 c 0 -2 -0.4 -4 -1.3 -5.8 C 95 288.2 92.2 286.1 88.9 286.3 z" stroke-linecap="round"/>
</g>
<g transform="matrix(2.1853 0 0 2.1853 259.0977 586.2941)" id="OBJEKTS">
<path style="stroke: none; stroke-width: 1; stroke-dasharray: none; stroke-linecap: butt; stroke-dashoffset: 0; stroke-linejoin: miter; stroke-miterlimit: 4; is-custom-font: none; font-file-url: none; fill: rgb(238,80,80); fill-rule: nonzero; opacity: 1;" transform=" translate(-97.7632, -234.4883)" d="M 80.2 228.2 c -0.1 -0.3 -0.2 -0.6 -0.3 -0.9 c 0 0.2 0.8 0.5 1 0.5 l 1.1 0.6 c 0.7 0.4 1.4 0.8 2.1 1.2 s 1.4 0.8 2.1 1.3 c 0.3 0.2 0.5 0.4 0.8 0.3 c 0.5 -0.1 1 -0.3 1.5 -0.6 l 1.8 -0.7 l 3.6 -1.4 c 2.4 -0.9 4.8 -1.9 7.1 -2.9 c 0.9 -0.4 3 -0.9 3.3 -1.9 c 0.1 -0.4 0.2 -0.7 0.1 -1.1 c 0.1 -1.9 0.5 -5.5 0.5 -5.5 s 1.4 1.2 1.6 1.5 c 0.5 0.6 1 1.2 1.5 1.9 c 1 1.3 1.8 2.6 2.6 4 c 1.7 3 3.1 6.1 4.2 9.3 c 0.9 2.6 1.4 5.2 -0.3 7.5 c -1.6 2.2 -4.2 3.5 -6.5 4.8 c -4.8 2.5 -9.9 5.2 -15.3 5.7 c -1.4 0.2 -2.7 0 -4 -0.5 c -1.2 -0.7 -2.2 -1.7 -2.8 -3 C 82.7 241.9 82 234.9 80.2 228.2 z" stroke-linecap="round"/>
</g>
<g transform="matrix(2.1853 0 0 2.1853 270.2072 604.4358)" id="OBJEKTS">
<path style="stroke: none; stroke-width: 1; stroke-dasharray: none; stroke-linecap: butt; stroke-dashoffset: 0; stroke-linejoin: miter; stroke-miterlimit: 4; is-custom-font: none; font-file-url: none; fill: rgb(25,3,77); fill-rule: nonzero; opacity: 1;" transform=" translate(-102.8468, -242.7898)" d="M 106.9 242 c -1.6 -0.5 -3.2 -0.6 -4.8 -1.1 c 0.1 -0.2 0.2 -0.3 0.3 -0.5 c 0.2 -0.4 0.5 -0.8 0.7 -1.3 c 0.1 -0.2 0.1 -0.6 -0.2 -0.7 h -0.1 c -0.5 -0.2 -1.4 0.3 -1.9 0.5 c -0.8 0.3 -1.5 0.6 -2.2 1 c -0.2 0.1 -0.3 0.4 -0.2 0.7 c 0.1 0.1 0.2 0.2 0.3 0.2 l 2 0.6 c -0.7 1.7 -1.3 3.4 -1.7 5.2 c -0.1 0.3 0.1 0.6 0.4 0.6 c 0.3 0.1 0.6 -0.1 0.6 -0.4 c 0.5 -1.7 1 -3.4 1.7 -5 c 1.6 0.5 3.3 0.6 4.9 1.1 C 107.2 243.2 107.5 242.2 106.9 242 z" stroke-linecap="round"/>
</g>
<g transform="matrix(2.1853 0 0 2.1853 248.191 595.3907)" id="OBJEKTS">
<path style="stroke: none; stroke-width: 1; stroke-dasharray: none; stroke-linecap: butt; stroke-dashoffset: 0; stroke-linejoin: miter; stroke-miterlimit: 4; is-custom-font: none; font-file-url: none; fill: rgb(25,3,77); fill-rule: nonzero; opacity: 1;" transform=" translate(-92.7722, -238.6508)" d="M 93.1 237.8 c -0.2 -0.1 -0.4 -0.1 -0.6 0 c -0.1 0 -0.3 0 -0.4 0.2 c -0.1 0.1 -0.2 0.3 -0.2 0.4 s -0.1 0.2 -0.1 0.2 c 0 0.1 0 0.3 0.1 0.4 c 0.2 0.5 0.7 0.7 1.2 0.5 c 0.2 -0.1 0.4 -0.2 0.5 -0.4 c 0.3 -0.4 0.1 -1 -0.3 -1.3 C 93.3 237.9 93.2 237.8 93.1 237.8 z" stroke-linecap="round"/>
</g>
<g transform="matrix(2.1853 0 0 2.1853 280.9707 582.2789)" id="OBJEKTS">
<path style="stroke: none; stroke-width: 1; stroke-dasharray: none; stroke-linecap: butt; stroke-dashoffset: 0; stroke-linejoin: miter; stroke-miterlimit: 4; is-custom-font: none; font-file-url: none; fill: rgb(25,3,77); fill-rule: nonzero; opacity: 1;" transform=" translate(-107.7722, -232.6508)" d="M 108.1 231.8 c -0.2 -0.1 -0.4 -0.1 -0.6 0 c -0.1 0 -0.3 0 -0.4 0.2 c -0.1 0.1 -0.2 0.3 -0.2 0.4 s -0.1 0.2 -0.1 0.2 c 0 0.1 0 0.3 0.1 0.4 c 0.2 0.5 0.7 0.7 1.2 0.5 c 0.2 -0.1 0.4 -0.2 0.5 -0.4 c 0.3 -0.4 0.1 -1 -0.3 -1.3 C 108.3 231.9 108.2 231.8 108.1 231.8 z" stroke-linecap="round"/>
</g>
<g transform="matrix(2.1853 0 0 2.1853 388.1805 682.7675)" id="OBJEKTS">
<path style="stroke: none; stroke-width: 1; stroke-dasharray: none; stroke-linecap: butt; stroke-dashoffset: 0; stroke-linejoin: miter; stroke-miterlimit: 4; is-custom-font: none; font-file-url: none; fill: rgb(255,115,95); fill-rule: nonzero; opacity: 1;" transform=" translate(-156.8316, -278.6347)" d="M 134 296.7 c -1.9 6.5 -3.5 14.1 0.3 19.7 c 4.6 6.8 15.3 6.7 22 2 s 10.3 -12.6 13.4 -20.2 c 5.2 -12.8 9.8 -25.9 11.6 -39.6 c 1.1 -8 0.1 -17.9 -7.1 -21.4 c -11.2 -5.4 -20.7 3.2 -24.3 12.6 C 144 265.2 138.7 280.8 134 296.7 z" stroke-linecap="round"/>
</g>
<g transform="matrix(2.1853 0 0 2.1853 492.2892 644.1978)" id="OBJEKTS">
<path style="stroke: none; stroke-width: 1; stroke-dasharray: none; stroke-linecap: butt; stroke-dashoffset: 0; stroke-linejoin: miter; stroke-miterlimit: 4; is-custom-font: none; font-file-url: none; fill: rgb(248,189,122); fill-rule: nonzero; opacity: 1;" transform=" translate(-204.4719, -260.9853)" d="M 167.9 214.2 c -2.9 3.1 -5.4 6.4 -7.7 9.9 c -3.1 4.9 -5.3 10.1 -7.7 15.4 c -0.9 1.8 -8.1 17.8 -6.5 18.9 c 9.1 6.5 18.1 13.7 28.6 17.7 c 0.4 0.1 -1.6 7.8 -1.8 8.5 c -0.7 2.8 -1.4 5.7 -1.9 8.5 c -1.1 5.7 -2.1 11.5 -3.1 17.2 c -0.6 3.2 -1.1 6.4 -1.6 9.6 c -0.2 1.4 45.2 4.5 49.3 4.5 c 12 0.2 30.9 3.5 38.2 -8.7 c 1.6 -3 2.7 -6.2 3.4 -9.5 c 4.5 -19.3 6.5 -39.2 6 -59 c 0 -4.7 -0.5 -9.3 -1.5 -13.9 c -1.6 -6.6 -5.1 -12.5 -8.7 -18.1 c -3.3 -5.2 -8.5 -8 -14 -10.7 c -16.5 -7.9 -36.5 -10.5 -53.2 -3.1 C 178.9 204.5 172.9 208.9 167.9 214.2 z" stroke-linecap="round"/>
</g>
<g transform="matrix(2.1853 0 0 2.1853 596.9831 682.9723)" id="OBJEKTS">
<path style="stroke: none; stroke-width: 1; stroke-dasharray: none; stroke-linecap: butt; stroke-dashoffset: 0; stroke-linejoin: miter; stroke-miterlimit: 4; is-custom-font: none; font-file-url: none; fill: rgb(255,115,95); fill-rule: nonzero; opacity: 1;" transform=" translate(-252.3796, -278.7284)" d="M 243.5 261 c -0.5 1 -0.9 2.1 -1.4 3.1 c -1.8 4 -6.1 11 -6.1 15.4 c -2.1 6.4 -3 13.3 -1.8 19.9 c 0.5 2.6 1.3 5.2 2.2 7.8 c 1 3.3 2.4 6.4 4.3 9.2 c 1.8 2.4 6.2 6.3 9.6 5 s 6.2 -7.8 7.5 -11 c 8 -18.8 11.2 -39.5 13.1 -59.8 c 0.7 -3.6 -0.5 -7.3 -3.1 -9.7 c -1.8 -2.2 -3.8 -4.5 -6.5 -5 c -2.8 -0.5 -5.4 0.9 -7.2 2.9 c -1.7 2.1 -3.1 4.5 -4 7 L 243.5 261 z" stroke-linecap="round"/>
</g>
<g transform="matrix(2.1853 0 0 2.1853 600.5897 581.1191)" id="OBJEKTS">
<path style="stroke: none; stroke-width: 1; stroke-dasharray: none; stroke-linecap: butt; stroke-dashoffset: 0; stroke-linejoin: miter; stroke-miterlimit: 4; is-custom-font: none; font-file-url: none; fill: rgb(248,189,122); fill-rule: nonzero; opacity: 1;" transform=" translate(-254.03, -232.1203)" d="M 258 258.9 c -1.5 -0.4 -23.1 -5.7 -23.1 -3 c 0.2 -11.7 0.8 -23.4 1.9 -35.1 c 0.2 -3.7 0.9 -7.4 2.2 -10.9 c 1.4 -3.4 4 -6.6 7.4 -7.9 c 2.6 -0.9 5.5 -1 8.1 -0.3 c 8.6 2 15.5 8.6 17.7 17.2 c 0.8 3.6 1.1 7.4 0.9 11.1 c -0.1 11 -0.9 22 -1.6 33 C 266.9 262.9 262.4 260.1 258 258.9 z" stroke-linecap="round"/>
</g>
<g transform="matrix(2.1853 0 0 2.1853 607.4481 533.0976)" id="OBJEKTS">
<path style="stroke: none; stroke-width: 1; stroke-dasharray: none; stroke-linecap: butt; stroke-dashoffset: 0; stroke-linejoin: miter; stroke-miterlimit: 4; is-custom-font: none; font-file-url: none; fill: rgb(219,99,82); fill-rule: nonzero; opacity: 1;" transform=" translate(-257.1683, -210.1456)" d="M 268.9 199.5 c 0.3 1 0.5 2 0.6 3.1 c 0.5 7 -4.2 12.9 -8.8 17.6 c -1.8 1.9 -4.4 3.1 -6 5.1 c -1.9 2.2 -1.8 5.8 -5 6.8 c -2.1 0.5 -4.3 -0.8 -4.8 -2.9 c -0.2 -0.9 -0.1 -1.8 0.3 -2.7 c 0.6 -2.1 1.4 -4.1 2.4 -5.9 c 0.9 -1.4 2.7 -2.2 4.1 -3 c 2.8 -1.7 4.8 -4.6 5.3 -7.9 c 0.9 -5.9 0 -12.6 2.1 -18.2 c 0.3 -1 0.9 -1.9 1.6 -2.6 c 0.8 -0.7 1.9 -1 2.9 -0.7 c 1.4 0.5 2 2.2 2.5 3.6 C 266.9 194.4 268.2 196.9 268.9 199.5 z" stroke-linecap="round"/>
</g>
<g transform="matrix(2.1853 0 0 2.1853 581.7378 661.3546)" id="OBJEKTS">
<path style="stroke: none; stroke-width: 1; stroke-dasharray: none; stroke-linecap: butt; stroke-dashoffset: 0; stroke-linejoin: miter; stroke-miterlimit: 4; is-custom-font: none; font-file-url: none; fill: rgb(219,99,82); fill-rule: nonzero; opacity: 1;" transform=" translate(-245.4033, -268.8363)" d="M 261.2 273.8 c 0.7 12.6 0.5 25.5 -2.9 37.8 c -1 3.7 -2.7 8.9 -6.3 11 c -4 2.3 -10.3 0.4 -14 -1.7 c -2.5 -1.3 -4.7 -3.2 -6.3 -5.5 c -2.5 -3.7 -2.6 -8.5 -2.3 -13 c 0.8 -12 3.7 -23.1 6.1 -34.8 c 2.5 -12.7 5.5 -25.3 8.9 -37.9 c 1.4 -5.3 3.3 -9.3 7.8 -12.7 c 3.2 -2.4 8.5 -5.6 8.8 0.7 C 261.8 236.3 260.2 255 261.2 273.8 z" stroke-linecap="round"/>
</g>
<g transform="matrix(2.1853 0 0 2.1853 563.0323 512.4992)" id="OBJEKTS">
<path style="stroke: none; stroke-width: 1; stroke-dasharray: none; stroke-linecap: butt; stroke-dashoffset: 0; stroke-linejoin: miter; stroke-miterlimit: 4; is-custom-font: none; font-file-url: none; fill: rgb(255,115,95); fill-rule: nonzero; opacity: 1;" transform=" translate(-236.8438, -200.7198)" d="M 210.8 209.8 c -0.4 0.7 -0.7 1.4 -0.9 2.1 c -0.2 1 -0.2 2 0 2.9 c 0.9 7.3 2.4 14.5 10.3 16.8 c 5.5 1.6 11.3 1 16.4 -1.7 c 1.6 -0.8 3 -1.8 4.2 -3.1 c 1.3 -1.2 2 -2.9 2.1 -4.7 c 5.3 1.2 10.7 -4.2 13.4 -8 c 6.3 -8.8 8.4 -19.9 7.4 -30.5 c -0.2 -2.6 -0.6 -5.4 -2.2 -7.4 c -1.2 -1.4 -2.6 -2.6 -4.2 -3.5 c -7.2 -4.6 -14.9 -4.9 -22.7 -1.2 c -7.1 3.3 -12.1 10.4 -15.5 17.2 c -1.4 2.9 -1.6 6.6 -2.8 9.7 c -1.3 3.6 -3 7.1 -5 10.4 L 210.8 209.8 z" stroke-linecap="round"/>
</g>
<g transform="matrix(2.1853 0 0 2.1853 575.0537 473.1798)" id="OBJEKTS">
<path style="stroke: none; stroke-width: 1; stroke-dasharray: none; stroke-linecap: butt; stroke-dashoffset: 0; stroke-linejoin: miter; stroke-miterlimit: 4; is-custom-font: none; font-file-url: none; fill: rgb(25,3,77); fill-rule: nonzero; opacity: 1;" transform=" translate(-242.3448, -182.7272)" d="M 220.7 172.8 c 1.5 -3.6 3.9 -6.7 7 -9 c 5.4 -3.8 13.2 -3.1 19.3 -1.7 c 3.5 0.8 7 2.3 10.6 2.3 c 3.3 0 6.7 -3.3 9.9 -2.2 c 1.4 0.5 2.5 1.7 2.8 3.2 c 0.5 2.4 -1 4.7 -2.1 6.9 c -0.8 1.8 -1.8 3.5 -2.8 5.1 c -1.6 2.1 -3.9 3.6 -6.5 4 c -0.9 0.1 -1.7 0 -2.6 -0.1 c -5.2 -0.5 -9.5 -2 -13.5 2.1 c -2.7 2.8 -4 6.6 -6 9.9 c -0.4 0.8 -1.1 1.5 -1.8 2.1 c -1.1 0.5 -2.3 0.8 -3.5 0.9 c -5.1 1.2 -8.5 9.8 -13.9 7.9 c -4.6 -1.6 -3.6 -5.8 -1.8 -9.1 c 2.3 -4.2 1.9 -9.2 2.5 -13.9 C 218.7 178.2 219.5 175.4 220.7 172.8 z" stroke-linecap="round"/>
</g>
<g transform="matrix(2.1853 0 0 2.1853 538.3623 507.2046)" id="OBJEKTS">
<path style="stroke: none; stroke-width: 1; stroke-dasharray: none; stroke-linecap: butt; stroke-dashoffset: 0; stroke-linejoin: miter; stroke-miterlimit: 4; is-custom-font: none; font-file-url: none; fill: rgb(255,115,95); fill-rule: nonzero; opacity: 1;" transform=" translate(-225.5546, -198.2969)" d="M 222 192.6 c -1.1 1.6 -1.9 3.5 -2.2 5.4 c -0.4 1.6 -0.4 3.4 0 5 c 0.5 1.7 1.8 3 3.5 3.4 c 1.3 0.2 2.7 -0.3 3.7 -1.2 c 2.4 -2.1 5.2 -8.5 4.5 -11.8 C 230.5 188.8 224.3 189.6 222 192.6 z" stroke-linecap="round"/>
</g>
<g transform="matrix(2.1853 0 0 2.1853 536.3855 506.3374)" id="OBJEKTS">
<path style="stroke: rgb(25,3,77); stroke-width: 1; stroke-dasharray: none; stroke-linecap: butt; stroke-dashoffset: 0; stroke-linejoin: miter; stroke-miterlimit: 10; is-custom-font: none; font-file-url: none; fill: none; fill-rule: nonzero; opacity: 1;" transform=" translate(-224.65, -197.9)" d="M 226.7 194.4 c -1.3 0.5 -2.4 1.6 -3 2.9 c -0.5 1.3 -0.9 2.7 -1.1 4.1" stroke-linecap="round"/>
</g>
<g transform="matrix(2.1853 0 0 2.1853 612.4344 501.2019)" id="OBJEKTS">
<path style="stroke: none; stroke-width: 1; stroke-dasharray: none; stroke-linecap: butt; stroke-dashoffset: 0; stroke-linejoin: miter; stroke-miterlimit: 4; is-custom-font: none; font-file-url: none; fill: rgb(25,3,77); fill-rule: nonzero; opacity: 1;" transform=" translate(-259.45, -195.55)" d="M 260.6 195.3 c 0.1 0.6 -0.2 1.3 -0.9 1.4 c -0.6 0.1 -1.3 -0.3 -1.4 -0.9 c -0.1 -0.6 0.2 -1.2 0.9 -1.4 l 0 0 C 259.9 194.3 260.5 194.7 260.6 195.3 L 260.6 195.3 z" stroke-linecap="round"/>
</g>
<g transform="matrix(2.1853 0 0 2.1853 583.6975 503.2946)" id="OBJEKTS">
<path style="stroke: none; stroke-width: 1; stroke-dasharray: none; stroke-linecap: butt; stroke-dashoffset: 0; stroke-linejoin: miter; stroke-miterlimit: 4; is-custom-font: none; font-file-url: none; fill: rgb(25,3,77); fill-rule: nonzero; opacity: 1;" transform=" translate(-246.3, -196.5076)" d="M 247.5 196.4 c 0.1 0.6 -0.3 1.2 -1 1.3 l 0 0 c -0.6 0.1 -1.2 -0.3 -1.4 -1 c -0.1 -0.6 0.3 -1.2 1 -1.4 C 246.8 195.3 247.4 195.7 247.5 196.4 C 247.5 196.3 247.5 196.3 247.5 196.4 z" stroke-linecap="round"/>
</g>
<g transform="matrix(2.1853 0 0 2.1853 581.4909 746.9939)" id="OBJEKTS">
<linearGradient id="SVGID_27" gradientUnits="userSpaceOnUse" gradientTransform="matrix(1 0 0 -1 42 196)" x1="191.6102" y1="-130.1417" x2="205.8202" y2="-99.1718">
<stop offset="0%" style="stop-color:rgb(32,27,89);stop-opacity: 0.91"/>
<stop offset="56.00000000000001%" style="stop-color:rgb(255,204,0);stop-opacity: 0"/>
</linearGradient>
<path style="stroke: none; stroke-width: 1; stroke-dasharray: none; stroke-linecap: butt; stroke-dashoffset: 0; stroke-linejoin: miter; stroke-miterlimit: 4; is-custom-font: none; font-file-url: none; fill: url(#SVGID_27); fill-rule: nonzero; opacity: 1;" transform=" translate(-245.2904, -308.0245)" d="M 230.5 292.5 c -0.5 3.2 -0.9 6.5 -1.1 9.8 c -0.3 4.5 -0.2 9.2 2.3 13 c 1.7 2.3 3.8 4.2 6.3 5.5 c 3.7 2.1 10 4 14 1.7 c 3.5 -2 5.2 -7.3 6.3 -11 c 1.7 -6.2 2.7 -12.6 3 -19 H 230.5 z" stroke-linecap="round"/>
</g>
<g transform="matrix(2.1853 0 0 2.1853 444.8616 677.7751)" id="OBJEKTS">
<linearGradient id="SVGID_28" gradientUnits="userSpaceOnUse" gradientTransform="matrix(1 0 0 -1 42 196)" x1="131.5538" y1="-74.2957" x2="148.4738" y2="-90.5656">
<stop offset="0%" style="stop-color:rgb(32,27,89);stop-opacity: 0.91"/>
<stop offset="56.00000000000001%" style="stop-color:rgb(255,204,0);stop-opacity: 0"/>
</linearGradient>
<path style="stroke: none; stroke-width: 1; stroke-dasharray: none; stroke-linecap: butt; stroke-dashoffset: 0; stroke-linejoin: miter; stroke-miterlimit: 4; is-custom-font: none; font-file-url: none; fill: url(#SVGID_28); fill-rule: nonzero; opacity: 1;" transform=" translate(-182.7688, -276.35)" d="M 194.6 273.1 l -5.5 -15.6 c 0.1 0.4 -1 2.1 -1.2 2.5 c -0.4 0.9 -0.8 1.8 -1.2 2.7 c -0.8 1.9 -1.7 3.7 -2.5 5.5 c -1.5 3.5 -3.3 7 -5.2 10.4 c -1.6 -0.5 -3.1 -1.3 -4.4 -2.4 c -0.5 3.2 -1.5 6.1 -2.2 9.3 c -0.3 1.6 -0.6 3.3 -0.9 4.9 c -0.1 0.8 -0.3 1.6 -0.5 2.5 c -0.1 0.3 -0.2 2.1 -0.4 2.3 c 8.5 -5 16.3 -11.2 23.1 -18.3 c 0.6 -0.5 1 -1.2 1.2 -2 C 195 274.3 194.9 273.7 194.6 273.1 z" stroke-linecap="round"/>
</g>
<g transform="matrix(2.1853 0 0 2.1853 612.3961 490.914)" id="OBJEKTS">
<path style="stroke: none; stroke-width: 1; stroke-dasharray: none; stroke-linecap: butt; stroke-dashoffset: 0; stroke-linejoin: miter; stroke-miterlimit: 4; is-custom-font: none; font-file-url: none; fill: rgb(25,3,77); fill-rule: nonzero; opacity: 1;" transform=" translate(-259.4325, -190.8423)" d="M 261.5 189 c -1.6 -0.2 -3.2 0.2 -4.6 1.1 c -0.7 0.4 -0.9 1.2 -0.6 1.9 c 0.4 0.7 1.2 0.9 1.9 0.6 c 0.9 -0.6 2 -0.9 3.1 -0.7 c 0.8 0 1.4 -0.7 1.4 -1.5 C 262.7 189.7 262.2 189.1 261.5 189 L 261.5 189 z" stroke-linecap="round"/>
</g>
<g transform="matrix(2.1853 0 0 2.1853 585.0794 493.8898)" id="OBJEKTS">
<path style="stroke: none; stroke-width: 1; stroke-dasharray: none; stroke-linecap: butt; stroke-dashoffset: 0; stroke-linejoin: miter; stroke-miterlimit: 4; is-custom-font: none; font-file-url: none; fill: rgb(25,3,77); fill-rule: nonzero; opacity: 1;" transform=" translate(-246.9324, -192.2039)" d="M 250.1 191.2 c -2 -0.9 -4.1 -0.5 -6.1 0 c -1.5 0.4 -1.2 2.9 0.4 2.5 s 3.2 -0.9 4.7 -0.2 S 251.6 191.8 250.1 191.2 z" stroke-linecap="round"/>
</g>
<g transform="matrix(2.1853 0 0 2.1853 564.3574 564.3575)" id="OBJEKTS">
<linearGradient id="SVGID_29" gradientUnits="userSpaceOnUse" gradientTransform="matrix(0.9745 -0.2244 -0.2244 -0.9745 97.1036 -227.3265)" x1="40.1411" y1="-463.8056" x2="28.4511" y2="-477.5055">
<stop offset="27%" style="stop-color:rgb(32,27,89);stop-opacity: 0.91"/>
<stop offset="56.00000000000001%" style="stop-color:rgb(255,115,95);stop-opacity: 0"/>
</linearGradient>
<path style="stroke: none; stroke-width: 1; stroke-dasharray: none; stroke-linecap: butt; stroke-dashoffset: 0; stroke-linejoin: miter; stroke-miterlimit: 4; is-custom-font: none; font-file-url: none; fill: url(#SVGID_29); fill-rule: nonzero; opacity: 1;" transform=" translate(-237.45, -224.45)" d="M 232.5 217.9 c -0.1 2.6 -0.2 5.2 -0.3 7.8 c 0 1.4 -0.1 2.7 -0.1 4.1 c 0 0.2 -0.1 0.7 -0.1 1.2 c 1.6 -0.3 3.2 -0.8 4.7 -1.4 c 2.2 -0.8 4.1 -2.4 5.3 -4.5 c 0.4 -0.8 0.7 -1.7 0.9 -2.6 C 239.3 221.8 235.2 220.4 232.5 217.9 z" stroke-linecap="round"/>
</g>
<g transform="matrix(2.1853 0 0 2.1853 459.2786 752.0417)" id="OBJEKTS">
<path style="stroke: none; stroke-width: 1; stroke-dasharray: none; stroke-linecap: butt; stroke-dashoffset: 0; stroke-linejoin: miter; stroke-miterlimit: 4; is-custom-font: none; font-file-url: none; fill: rgb(255,115,95); fill-rule: nonzero; opacity: 1;" transform=" translate(-189.3663, -310.3344)" d="M 205 323.8 c 13.5 1.6 28.5 3.4 41.5 -0.5 c -2 -3.1 -4.3 -6 -6.9 -8.6 s -6 -4.3 -9.7 -4.9 c -1.9 -0.2 -3.9 -0.1 -5.8 0.2 c -3.4 0.4 -7.7 2.2 -11.1 1.9 c -2.8 -0.2 -6.5 -2.6 -9.2 -3.7 c -18.1 -7.2 -39.6 -16.9 -59.5 -11.7 c -10 2.6 -16 11 -9.1 20.4 c 3.9 5.3 10.1 4.3 16.2 4.4 c 16.4 0.3 32.9 0.1 49.2 2 L 205 323.8 z" stroke-linecap="round"/>
</g>
<g transform="matrix(2.1853 0 0 2.1853 592.9851 527.8175)" id="OBJEKTS">
<path style="stroke: none; stroke-width: 1; stroke-dasharray: none; stroke-linecap: butt; stroke-dashoffset: 0; stroke-linejoin: miter; stroke-miterlimit: 4; is-custom-font: none; font-file-url: none; fill: rgb(25,3,77); fill-rule: nonzero; opacity: 1;" transform=" translate(-250.55, -207.7293)" d="M 245.9 211.8 l -1 -0.2 c 0.4 -1.8 1.2 -3.5 2.3 -5 c 1.1 -1.6 2.9 -2.6 4.8 -2.9 c 0.6 -0.1 1.2 0 1.7 0.1 c 1.1 0.4 2 1.3 2.5 2.4 l -0.9 0.4 c -0.4 -0.9 -1 -1.5 -1.9 -1.9 c -0.4 -0.1 -0.9 -0.2 -1.3 -0.1 c -1.6 0.2 -3.1 1.1 -4.1 2.5 C 246.9 208.5 246.2 210.1 245.9 211.8 z" stroke-linecap="round"/>
</g>
<g transform="matrix(2.1853 0 0 2.1853 402.8627 711.8662)" id="OBJEKTS">
<linearGradient id="SVGID_30" gradientUnits="userSpaceOnUse" gradientTransform="matrix(1 0 0 -1 42 196)" x1="126.4132" y1="-107.5284" x2="117.7132" y2="-89.8684">
<stop offset="27%" style="stop-color:rgb(32,27,89);stop-opacity: 0.91"/>
<stop offset="56.00000000000001%" style="stop-color:rgb(255,115,95);stop-opacity: 0"/>
</linearGradient>
<path style="stroke: none; stroke-width: 1; stroke-dasharray: none; stroke-linecap: butt; stroke-dashoffset: 0; stroke-linejoin: miter; stroke-miterlimit: 4; is-custom-font: none; font-file-url: none; fill: url(#SVGID_30); fill-rule: nonzero; opacity: 1;" transform=" translate(-163.55, -291.95)" d="M 171 290.5 c -0.1 -0.2 -0.3 -0.5 -0.4 -0.7 c -0.9 -1.6 -1.8 -3.1 -2.7 -4.7 c -1.2 1.3 -2.5 2.4 -3.9 3.5 c -1.9 1.3 -3.6 2.8 -5.2 4.5 c -1 1 -1.9 2.1 -2.8 3.1 c 0.2 0.6 0.5 1.1 0.7 1.7 c 0.1 0.3 0.2 0.6 0.4 0.9 c 0.6 -0.2 1.3 -0.4 1.9 -0.6 c 3.2 -0.9 7.5 -2.2 11 -1.7 c 0.2 -2 0.9 -3.8 1.1 -5.8 C 171 290.7 171 290.6 171 290.5 z" stroke-linecap="round"/>
</g>
<g transform="matrix(2.1853 0 0 2.1853 590.5369 547.7759)" id="OBJEKTS">
<path style="stroke: none; stroke-width: 1; stroke-dasharray: none; stroke-linecap: butt; stroke-dashoffset: 0; stroke-linejoin: miter; stroke-miterlimit: 4; is-custom-font: none; font-file-url: none; fill: rgb(219,99,82); fill-rule: nonzero; opacity: 1;" transform=" translate(-249.4297, -216.8623)" d="M 249.9 215.8 c -0.7 0 -1.3 0.4 -1.7 0.9 c -0.1 0.3 -0.1 0.6 0.1 0.8 c 0 0.2 0.2 0.4 0.4 0.4 c 0.7 0.1 1.4 -0.1 1.8 -0.7 c 0.3 -0.3 0.3 -0.8 0 -1.1 C 250.3 215.9 250.1 215.8 249.9 215.8 z" stroke-linecap="round"/>
</g>
<g transform="matrix(2.1853 0 0 2.1853 591.2182 485.526)" id="OBJEKTS">
<path style="stroke: none; stroke-width: 1; stroke-dasharray: none; stroke-linecap: butt; stroke-dashoffset: 0; stroke-linejoin: miter; stroke-miterlimit: 4; is-custom-font: none; font-file-url: none; fill: rgb(219,99,82); fill-rule: nonzero; opacity: 1;" transform=" translate(-249.7414, -188.3767)" d="M 250.9 188.2 c -0.7 -0.3 -1.5 -0.5 -2.2 -0.6 c -0.6 -0.1 -0.6 0.9 0 1 c 0.7 0.1 1.4 0.3 2 0.5 C 251.2 189.4 251.5 188.5 250.9 188.2 z" stroke-linecap="round"/>
</g>
<g transform="matrix(2.1853 0 0 2.1853 605.8476 483.6965)" id="OBJEKTS">
<path style="stroke: none; stroke-width: 1; stroke-dasharray: none; stroke-linecap: butt; stroke-dashoffset: 0; stroke-linejoin: miter; stroke-miterlimit: 4; is-custom-font: none; font-file-url: none; fill: rgb(219,99,82); fill-rule: nonzero; opacity: 1;" transform=" translate(-256.4359, -187.5395)" d="M 257.1 186.8 l -1.6 0.5 c -0.6 0.2 -0.4 1.1 0.3 1 l 1.6 -0.5 C 258 187.5 257.7 186.6 257.1 186.8 z" stroke-linecap="round"/>
</g>
<g transform="matrix(2.1853 0 0 2.1853 471.262 255.2442)" id="OBJEKTS">
<path style="stroke: none; stroke-width: 1; stroke-dasharray: none; stroke-linecap: butt; stroke-dashoffset: 0; stroke-linejoin: miter; stroke-miterlimit: 4; is-custom-font: none; font-file-url: none; fill: rgb(38,43,64); fill-rule: nonzero; opacity: 1;" transform=" translate(-194.85, -83)" d="M 142.5 47.4 h 104.7 c 16.8 0 30.5 13.6 30.5 30.4 l 0 0 v 40.8 l 0 0 H 142.5 c -16.8 0 -30.5 -13.6 -30.5 -30.4 l 0 0 V 77.8 C 112 61 125.6 47.4 142.5 47.4 L 142.5 47.4 z" stroke-linecap="round"/>
</g>
<g transform="matrix(2.1853 0 0 2.1853 351.8348 429.0862)" id="OBJEKTS">
<path style="stroke: none; stroke-width: 1; stroke-dasharray: none; stroke-linecap: butt; stroke-dashoffset: 0; stroke-linejoin: miter; stroke-miterlimit: 4; is-custom-font: none; font-file-url: none; fill: rgb(255,255,255); fill-rule: nonzero; opacity: 1;" transform=" translate(-140.2, -162.55)" d="M 102.7 135.6 h 75 c 12.7 0 23 10.3 23 23 v 30.9 l 0 0 h -98 c -12.7 0 -23 -10.3 -23 -23 v -7.9 C 79.7 145.9 90 135.6 102.7 135.6 L 102.7 135.6 z" stroke-linecap="round"/>
</g>
<g transform="matrix(2.1853 0 0 2.1853 301.6852 430.3976)" id="OBJEKTS">
<path style="stroke: none; stroke-width: 1; stroke-dasharray: none; stroke-linecap: butt; stroke-dashoffset: 0; stroke-linejoin: miter; stroke-miterlimit: 4; is-custom-font: none; font-file-url: none; fill: rgb(6,72,179); fill-rule: nonzero; opacity: 1;" transform=" translate(-117.2512, -163.1499)" d="M 117.8 168.5 c -1.4 0.1 -2.8 -0.4 -3.9 -1.4 c -1 -1 -1.5 -2.5 -1.4 -3.9 c -0.1 -1.4 0.4 -2.9 1.3 -4 c 0.9 -1 2.2 -1.5 3.6 -1.4 c 1.3 -0.1 2.5 0.4 3.4 1.2 c 0.9 0.9 1.3 2.2 1.2 3.4 v 1.4 h -6.6 c 0 0.7 0.2 1.4 0.7 1.9 s 1.2 0.7 1.9 0.7 c 0.6 0 1.2 -0.1 1.8 -0.2 c 0.6 -0.1 1.2 -0.3 1.7 -0.6 v 2.2 c -0.5 0.3 -1 0.4 -1.6 0.6 C 119.2 168.4 118.5 168.5 117.8 168.5 z M 117.4 159.8 c -0.5 0 -1 0.2 -1.4 0.6 c -0.4 0.5 -0.6 1 -0.6 1.6 h 4 c 0 -0.6 -0.2 -1.2 -0.5 -1.6 C 118.5 159.9 118 159.7 117.4 159.8 z" stroke-linecap="round"/>
</g>
<g transform="matrix(2.1853 0 0 2.1853 328.4527 430.0699)" id="OBJEKTS">
<path style="stroke: none; stroke-width: 1; stroke-dasharray: none; stroke-linecap: butt; stroke-dashoffset: 0; stroke-linejoin: miter; stroke-miterlimit: 4; is-custom-font: none; font-file-url: none; fill: rgb(6,72,179); fill-rule: nonzero; opacity: 1;" transform=" translate(-129.5, -163)" d="M 131.9 157.8 c 0.3 0 0.6 0 0.9 0.1 l -0.2 2.6 c -0.3 -0.1 -0.6 -0.1 -0.8 -0.1 c -0.8 0 -1.5 0.2 -2.1 0.7 c -0.5 0.5 -0.8 1.2 -0.7 1.9 v 5.2 h -2.8 V 158 h 2.1 l 0.4 1.7 h 0.1 c 0.3 -0.6 0.8 -1 1.3 -1.4 C 130.7 158 131.3 157.8 131.9 157.8 z" stroke-linecap="round"/>
</g>
<g transform="matrix(2.1853 0 0 2.1853 351.5078 430.0699)" id="OBJEKTS">
<path style="stroke: none; stroke-width: 1; stroke-dasharray: none; stroke-linecap: butt; stroke-dashoffset: 0; stroke-linejoin: miter; stroke-miterlimit: 4; is-custom-font: none; font-file-url: none; fill: rgb(6,72,179); fill-rule: nonzero; opacity: 1;" transform=" translate(-140.05, -163)" d="M 142.4 157.8 c 0.3 0 0.7 0 1 0.1 l -0.2 2.6 c -0.3 -0.1 -0.6 -0.1 -0.8 -0.1 c -0.8 0 -1.5 0.2 -2.1 0.7 c -0.5 0.5 -0.8 1.2 -0.8 1.9 v 5.2 h -2.8 V 158 h 2.1 l 0.4 1.7 h 0.1 c 0.3 -0.6 0.8 -1 1.3 -1.4 C 141.2 158 141.8 157.8 142.4 157.8 z" stroke-linecap="round"/>
</g>
<g transform="matrix(2.1853 0 0 2.1853 376.5296 430.2884)" id="OBJEKTS">
<path style="stroke: none; stroke-width: 1; stroke-dasharray: none; stroke-linecap: butt; stroke-dashoffset: 0; stroke-linejoin: miter; stroke-miterlimit: 4; is-custom-font: none; font-file-url: none; fill: rgb(6,72,179); fill-rule: nonzero; opacity: 1;" transform=" translate(-151.5, -163.1)" d="M 156.5 163.1 c 0.1 1.4 -0.4 2.8 -1.3 3.9 c -1 1 -2.3 1.5 -3.7 1.4 c -0.9 0 -1.8 -0.2 -2.6 -0.6 c -0.8 -0.4 -1.4 -1.1 -1.8 -1.9 c -0.4 -0.9 -0.6 -1.9 -0.6 -2.8 c -0.1 -1.4 0.4 -2.8 1.3 -3.9 c 1 -1 2.3 -1.5 3.7 -1.4 c 0.9 0 1.8 0.2 2.6 0.6 c 0.8 0.4 1.4 1.1 1.7 1.9 C 156.3 161.2 156.5 162.1 156.5 163.1 z M 149.4 163.1 c -0.1 0.8 0.1 1.6 0.5 2.3 c 0.4 0.5 1 0.8 1.6 0.8 c 0.6 0.1 1.3 -0.2 1.6 -0.8 c 0.4 -0.7 0.5 -1.5 0.5 -2.3 c 0.1 -0.8 -0.1 -1.6 -0.5 -2.3 c -0.4 -0.5 -1 -0.8 -1.6 -0.8 c -0.6 -0.1 -1.3 0.2 -1.6 0.8 C 149.5 161.5 149.3 162.3 149.4 163.1 L 149.4 163.1 z" stroke-linecap="round"/>
</g>
<g transform="matrix(2.1853 0 0 2.1853 403.9554 430.0699)" id="OBJEKTS">
<path style="stroke: none; stroke-width: 1; stroke-dasharray: none; stroke-linecap: butt; stroke-dashoffset: 0; stroke-linejoin: miter; stroke-miterlimit: 4; is-custom-font: none; font-file-url: none; fill: rgb(6,72,179); fill-rule: nonzero; opacity: 1;" transform=" translate(-164.05, -163)" d="M 166.5 157.8 c 0.3 0 0.6 0 0.9 0.1 l -0.2 2.6 c -0.3 -0.1 -0.6 -0.1 -0.8 -0.1 c -0.8 0 -1.5 0.2 -2.1 0.7 c -0.5 0.5 -0.8 1.2 -0.8 1.9 v 5.2 h -2.8 V 158 h 2.1 l 0.4 1.7 h 0.1 c 0.3 -0.6 0.8 -1 1.3 -1.4 C 165.2 158 165.9 157.8 166.5 157.8 z" stroke-linecap="round"/>
</g>
<g transform="matrix(2.1853 0 0 2.1853 371.5854 735.8918)" id="OBJEKTS">
<path style="stroke: none; stroke-width: 1; stroke-dasharray: none; stroke-linecap: butt; stroke-dashoffset: 0; stroke-linejoin: miter; stroke-miterlimit: 4; is-custom-font: none; font-file-url: none; fill: rgb(6,72,179); fill-rule: nonzero; opacity: 1;" transform=" translate(-149.2375, -302.9441)" d="M 144.8 310.9 c -1.3 0 -2.6 -0.1 -3.8 -0.4 l 0.4 -2.1 c 4.4 0.9 11.5 0 13.5 -4.2 c 0.6 -1.3 0.6 -2.8 0 -4.1 c -0.6 -1.3 -1.8 -2.2 -3.1 -2.6 c -2.7 -0.8 -6.2 0.1 -8.5 1.4 l -1.1 -1.9 c 2.5 -1.4 6.7 -2.7 10.2 -1.6 c 1.9 0.6 3.5 1.9 4.4 3.7 c 0.9 1.9 0.9 4.1 0 6 C 154.8 309.4 149.4 310.9 144.8 310.9 z" stroke-linecap="round"/>
</g>
<g transform="matrix(2.1853 0 0 2.1853 331.512 738.5269)" id="OBJEKTS">
<path style="stroke: none; stroke-width: 1; stroke-dasharray: none; stroke-linecap: butt; stroke-dashoffset: 0; stroke-linejoin: miter; stroke-miterlimit: 4; is-custom-font: none; font-file-url: none; fill: rgb(38,43,64); fill-rule: nonzero; opacity: 1;" transform=" translate(-130.9, -304.15)" d="M 113.5 290.2 h 34.8 l 0 0 v 14.2 c 0 7.6 -6.1 13.7 -13.7 13.7 l 0 0 h -7.4 c -7.6 0 -13.7 -6.1 -13.7 -13.7 l 0 0 L 113.5 290.2 L 113.5 290.2 z" stroke-linecap="round"/>
</g>
<g transform="matrix(2.1853 0 0 2.1853 332.1675 770.1049)" id="OBJEKTS">
<path style="stroke: none; stroke-width: 1; stroke-dasharray: none; stroke-linecap: butt; stroke-dashoffset: 0; stroke-linejoin: miter; stroke-miterlimit: 4; is-custom-font: none; font-file-url: none; fill: rgb(255,255,255); fill-rule: nonzero; opacity: 1;" transform=" translate(-131.2, -318.6)" d="M 158 320.2 h -53.6 c -0.9 0 -1.6 -0.7 -1.6 -1.6 l 0 0 c 0 -0.9 0.7 -1.6 1.6 -1.6 l 0 0 H 158 c 0.9 0 1.6 0.7 1.6 1.6 l 0 0 l 0 0 C 159.6 319.5 158.9 320.2 158 320.2 z" stroke-linecap="round"/>
</g>
<g transform="matrix(2.1853 0 0 2.1853 814.4632 658.665)" id="OBJEKTS" clip-path="url(#CLIPPATH_31)">
<clipPath id="CLIPPATH_31">
	<path transform="matrix(1 0 0 1 0 0) translate(-351.8985, -267.6054)" id="SVGID_7_" d="M 360.1 284.3 c 0.3 -1.9 0.9 -3.6 2.5 -4.5 c 2.2 -1.3 5 -0.2 7.6 -0.7 c 7.1 -1.3 7 -11.2 6.9 -16.6 c -0.1 -3.5 -0.2 -6.9 -0.5 -10.4 c 0 -0.9 -0.2 -1.8 -0.6 -2.6 c -1 -1.4 -2.8 -1.9 -4.4 -1.4 c -3.1 0.9 -4.8 4.2 -5.4 7.4 s -0.3 6.5 -1.1 9.6 c -0.1 0.6 -0.4 1.2 -0.7 1.7 c -0.4 0.6 -0.9 1 -1.5 1.3 c -0.9 0.5 -2 0.5 -2.9 0 c -1 -0.6 -0.8 -1.4 -0.8 -2.4 c 0 -1.2 -0.1 -2.3 -0.3 -3.5 c -0.3 -2.6 -0.6 -5.2 -0.8 -7.8 c -0.5 -5.1 -0.9 -10.2 -1.4 -15.4 c -0.1 -2.4 -0.7 -4.7 -1.7 -6.9 c -5.1 -9.1 -12.8 -1.1 -13.5 5.5 c -1.6 15.1 6.2 29.3 5.6 44.3 c 0 0.6 -0.1 1.3 -0.4 1.9 c -1.2 2.4 -5 2 -6.7 0.6 c -2.7 -2.1 -1.8 -6.8 -1.8 -9.5 c 0 -2.3 -0.7 -4.8 -2.9 -5.9 c -2.5 -1.2 -5.7 0.2 -7.1 2.5 c -1.8 2.9 -1.6 7.8 -1.4 11 c 0.1 2.3 0.8 4.6 2.1 6.6 c 1.4 2.1 3.7 3.4 6.1 3.6 c 1.5 0.1 3.1 -0.2 4.2 0.7 c 1.4 1.1 0.9 3 0.9 4.6 c 0.1 3.2 2.9 6 6.1 7.4 s 6.9 1.6 10.4 1.8 c 3 -4.8 3.2 -10.4 3.4 -15.8 C 359.9 289 359.9 286.7 360.1 284.3 z" stroke-linecap="round"/>
</clipPath>
<path style="stroke: none; stroke-width: 1; stroke-dasharray: none; stroke-linecap: butt; stroke-dashoffset: 0; stroke-linejoin: miter; stroke-miterlimit: 4; is-custom-font: none; font-file-url: none; fill: rgb(34,143,78); fill-rule: nonzero; opacity: 1;" transform=" translate(-351.8985, -267.6054)" d="M 360.1 284.3 c 0.3 -1.9 0.9 -3.6 2.5 -4.5 c 2.2 -1.3 5 -0.2 7.6 -0.7 c 7.1 -1.3 7 -11.2 6.9 -16.6 c -0.1 -3.5 -0.2 -6.9 -0.5 -10.4 c 0 -0.9 -0.2 -1.8 -0.6 -2.6 c -1 -1.4 -2.8 -1.9 -4.4 -1.4 c -3.1 0.9 -4.8 4.2 -5.4 7.4 s -0.3 6.5 -1.1 9.6 c -0.1 0.6 -0.4 1.2 -0.7 1.7 c -0.4 0.6 -0.9 1 -1.5 1.3 c -0.9 0.5 -2 0.5 -2.9 0 c -1 -0.6 -0.8 -1.4 -0.8 -2.4 c 0 -1.2 -0.1 -2.3 -0.3 -3.5 c -0.3 -2.6 -0.6 -5.2 -0.8 -7.8 c -0.5 -5.1 -0.9 -10.2 -1.4 -15.4 c -0.1 -2.4 -0.7 -4.7 -1.7 -6.9 c -5.1 -9.1 -12.8 -1.1 -13.5 5.5 c -1.6 15.1 6.2 29.3 5.6 44.3 c 0 0.6 -0.1 1.3 -0.4 1.9 c -1.2 2.4 -5 2 -6.7 0.6 c -2.7 -2.1 -1.8 -6.8 -1.8 -9.5 c 0 -2.3 -0.7 -4.8 -2.9 -5.9 c -2.5 -1.2 -5.7 0.2 -7.1 2.5 c -1.8 2.9 -1.6 7.8 -1.4 11 c 0.1 2.3 0.8 4.6 2.1 6.6 c 1.4 2.1 3.7 3.4 6.1 3.6 c 1.5 0.1 3.1 -0.2 4.2 0.7 c 1.4 1.1 0.9 3 0.9 4.6 c 0.1 3.2 2.9 6 6.1 7.4 s 6.9 1.6 10.4 1.8 c 3 -4.8 3.2 -10.4 3.4 -15.8 C 359.9 289 359.9 286.7 360.1 284.3 z" stroke-linecap="round"/>
</g>
<g transform="matrix(2.1853 0 0 2.1853 816.5033 655.5939)" id="OBJEKTS" clip-path="url(#CLIPPATH_32)">
<clipPath id="CLIPPATH_32">
	<path transform="matrix(1 0 0 1 -0.9334 1.4053) translate(-351.8985, -267.6054)" id="SVGID_7_" d="M 360.1 284.3 c 0.3 -1.9 0.9 -3.6 2.5 -4.5 c 2.2 -1.3 5 -0.2 7.6 -0.7 c 7.1 -1.3 7 -11.2 6.9 -16.6 c -0.1 -3.5 -0.2 -6.9 -0.5 -10.4 c 0 -0.9 -0.2 -1.8 -0.6 -2.6 c -1 -1.4 -2.8 -1.9 -4.4 -1.4 c -3.1 0.9 -4.8 4.2 -5.4 7.4 s -0.3 6.5 -1.1 9.6 c -0.1 0.6 -0.4 1.2 -0.7 1.7 c -0.4 0.6 -0.9 1 -1.5 1.3 c -0.9 0.5 -2 0.5 -2.9 0 c -1 -0.6 -0.8 -1.4 -0.8 -2.4 c 0 -1.2 -0.1 -2.3 -0.3 -3.5 c -0.3 -2.6 -0.6 -5.2 -0.8 -7.8 c -0.5 -5.1 -0.9 -10.2 -1.4 -15.4 c -0.1 -2.4 -0.7 -4.7 -1.7 -6.9 c -5.1 -9.1 -12.8 -1.1 -13.5 5.5 c -1.6 15.1 6.2 29.3 5.6 44.3 c 0 0.6 -0.1 1.3 -0.4 1.9 c -1.2 2.4 -5 2 -6.7 0.6 c -2.7 -2.1 -1.8 -6.8 -1.8 -9.5 c 0 -2.3 -0.7 -4.8 -2.9 -5.9 c -2.5 -1.2 -5.7 0.2 -7.1 2.5 c -1.8 2.9 -1.6 7.8 -1.4 11 c 0.1 2.3 0.8 4.6 2.1 6.6 c 1.4 2.1 3.7 3.4 6.1 3.6 c 1.5 0.1 3.1 -0.2 4.2 0.7 c 1.4 1.1 0.9 3 0.9 4.6 c 0.1 3.2 2.9 6 6.1 7.4 s 6.9 1.6 10.4 1.8 c 3 -4.8 3.2 -10.4 3.4 -15.8 C 359.9 289 359.9 286.7 360.1 284.3 z" stroke-linecap="round"/>
</clipPath>
<path style="stroke: rgb(25,3,77); stroke-width: 1; stroke-dasharray: none; stroke-linecap: butt; stroke-dashoffset: 0; stroke-linejoin: miter; stroke-miterlimit: 10; is-custom-font: none; font-file-url: none; fill: none; fill-rule: nonzero; opacity: 1;" transform=" translate(-352.8319, -266.2)" d="M 350.6 228.5 c 3.6 25 6.7 50.5 2.3 75.4" stroke-linecap="round"/>
</g>
<g transform="matrix(2.1853 0 0 2.1853 806.3981 650.677)" id="OBJEKTS" clip-path="url(#CLIPPATH_33)">
<clipPath id="CLIPPATH_33">
	<path transform="matrix(1 0 0 1 3.6907 3.6553) translate(-351.8985, -267.6054)" id="SVGID_7_" d="M 360.1 284.3 c 0.3 -1.9 0.9 -3.6 2.5 -4.5 c 2.2 -1.3 5 -0.2 7.6 -0.7 c 7.1 -1.3 7 -11.2 6.9 -16.6 c -0.1 -3.5 -0.2 -6.9 -0.5 -10.4 c 0 -0.9 -0.2 -1.8 -0.6 -2.6 c -1 -1.4 -2.8 -1.9 -4.4 -1.4 c -3.1 0.9 -4.8 4.2 -5.4 7.4 s -0.3 6.5 -1.1 9.6 c -0.1 0.6 -0.4 1.2 -0.7 1.7 c -0.4 0.6 -0.9 1 -1.5 1.3 c -0.9 0.5 -2 0.5 -2.9 0 c -1 -0.6 -0.8 -1.4 -0.8 -2.4 c 0 -1.2 -0.1 -2.3 -0.3 -3.5 c -0.3 -2.6 -0.6 -5.2 -0.8 -7.8 c -0.5 -5.1 -0.9 -10.2 -1.4 -15.4 c -0.1 -2.4 -0.7 -4.7 -1.7 -6.9 c -5.1 -9.1 -12.8 -1.1 -13.5 5.5 c -1.6 15.1 6.2 29.3 5.6 44.3 c 0 0.6 -0.1 1.3 -0.4 1.9 c -1.2 2.4 -5 2 -6.7 0.6 c -2.7 -2.1 -1.8 -6.8 -1.8 -9.5 c 0 -2.3 -0.7 -4.8 -2.9 -5.9 c -2.5 -1.2 -5.7 0.2 -7.1 2.5 c -1.8 2.9 -1.6 7.8 -1.4 11 c 0.1 2.3 0.8 4.6 2.1 6.6 c 1.4 2.1 3.7 3.4 6.1 3.6 c 1.5 0.1 3.1 -0.2 4.2 0.7 c 1.4 1.1 0.9 3 0.9 4.6 c 0.1 3.2 2.9 6 6.1 7.4 s 6.9 1.6 10.4 1.8 c 3 -4.8 3.2 -10.4 3.4 -15.8 C 359.9 289 359.9 286.7 360.1 284.3 z" stroke-linecap="round"/>
</clipPath>
<path style="stroke: rgb(25,3,77); stroke-width: 1; stroke-dasharray: none; stroke-linecap: butt; stroke-dashoffset: 0; stroke-linejoin: miter; stroke-miterlimit: 10; is-custom-font: none; font-file-url: none; fill: none; fill-rule: nonzero; opacity: 1;" transform=" translate(-348.2078, -263.95)" d="M 347.1 228.4 c -1 4.7 -2 9.4 -2 14.1 c 0 9.1 3.9 17.7 5.4 26.7 c 1.7 10 0.4 20.2 -0.8 30.3" stroke-linecap="round"/>
</g>
<g transform="matrix(2.1853 0 0 2.1853 835.9526 644.1214)" id="OBJEKTS" clip-path="url(#CLIPPATH_34)">
<clipPath id="CLIPPATH_34">
	<path transform="matrix(1 0 0 1 -9.8334 6.6553) translate(-351.8985, -267.6054)" id="SVGID_7_" d="M 360.1 284.3 c 0.3 -1.9 0.9 -3.6 2.5 -4.5 c 2.2 -1.3 5 -0.2 7.6 -0.7 c 7.1 -1.3 7 -11.2 6.9 -16.6 c -0.1 -3.5 -0.2 -6.9 -0.5 -10.4 c 0 -0.9 -0.2 -1.8 -0.6 -2.6 c -1 -1.4 -2.8 -1.9 -4.4 -1.4 c -3.1 0.9 -4.8 4.2 -5.4 7.4 s -0.3 6.5 -1.1 9.6 c -0.1 0.6 -0.4 1.2 -0.7 1.7 c -0.4 0.6 -0.9 1 -1.5 1.3 c -0.9 0.5 -2 0.5 -2.9 0 c -1 -0.6 -0.8 -1.4 -0.8 -2.4 c 0 -1.2 -0.1 -2.3 -0.3 -3.5 c -0.3 -2.6 -0.6 -5.2 -0.8 -7.8 c -0.5 -5.1 -0.9 -10.2 -1.4 -15.4 c -0.1 -2.4 -0.7 -4.7 -1.7 -6.9 c -5.1 -9.1 -12.8 -1.1 -13.5 5.5 c -1.6 15.1 6.2 29.3 5.6 44.3 c 0 0.6 -0.1 1.3 -0.4 1.9 c -1.2 2.4 -5 2 -6.7 0.6 c -2.7 -2.1 -1.8 -6.8 -1.8 -9.5 c 0 -2.3 -0.7 -4.8 -2.9 -5.9 c -2.5 -1.2 -5.7 0.2 -7.1 2.5 c -1.8 2.9 -1.6 7.8 -1.4 11 c 0.1 2.3 0.8 4.6 2.1 6.6 c 1.4 2.1 3.7 3.4 6.1 3.6 c 1.5 0.1 3.1 -0.2 4.2 0.7 c 1.4 1.1 0.9 3 0.9 4.6 c 0.1 3.2 2.9 6 6.1 7.4 s 6.9 1.6 10.4 1.8 c 3 -4.8 3.2 -10.4 3.4 -15.8 C 359.9 289 359.9 286.7 360.1 284.3 z" stroke-linecap="round"/>
</clipPath>
<path style="stroke: rgb(25,3,77); stroke-width: 1; stroke-dasharray: none; stroke-linecap: butt; stroke-dashoffset: 0; stroke-linejoin: miter; stroke-miterlimit: 10; is-custom-font: none; font-file-url: none; fill: none; fill-rule: nonzero; opacity: 1;" transform=" translate(-361.732, -260.95)" d="M 354.9 272.6 c 4.4 -0.6 9.6 -1.2 12.3 -4.7 c 0.4 -0.5 0.7 -1 0.9 -1.6 c 0.7 -2.4 0.4 -5 0.4 -7.5 c 0 -2.4 0 -6.4 0 -9.5" stroke-linecap="round"/>
</g>
<g transform="matrix(2.1853 0 0 2.1853 794.232 684.8643)" id="OBJEKTS" clip-path="url(#CLIPPATH_35)">
<clipPath id="CLIPPATH_35">
	<path transform="matrix(1 0 0 1 9.2579 -11.9886) translate(-351.8985, -267.6054)" id="SVGID_7_" d="M 360.1 284.3 c 0.3 -1.9 0.9 -3.6 2.5 -4.5 c 2.2 -1.3 5 -0.2 7.6 -0.7 c 7.1 -1.3 7 -11.2 6.9 -16.6 c -0.1 -3.5 -0.2 -6.9 -0.5 -10.4 c 0 -0.9 -0.2 -1.8 -0.6 -2.6 c -1 -1.4 -2.8 -1.9 -4.4 -1.4 c -3.1 0.9 -4.8 4.2 -5.4 7.4 s -0.3 6.5 -1.1 9.6 c -0.1 0.6 -0.4 1.2 -0.7 1.7 c -0.4 0.6 -0.9 1 -1.5 1.3 c -0.9 0.5 -2 0.5 -2.9 0 c -1 -0.6 -0.8 -1.4 -0.8 -2.4 c 0 -1.2 -0.1 -2.3 -0.3 -3.5 c -0.3 -2.6 -0.6 -5.2 -0.8 -7.8 c -0.5 -5.1 -0.9 -10.2 -1.4 -15.4 c -0.1 -2.4 -0.7 -4.7 -1.7 -6.9 c -5.1 -9.1 -12.8 -1.1 -13.5 5.5 c -1.6 15.1 6.2 29.3 5.6 44.3 c 0 0.6 -0.1 1.3 -0.4 1.9 c -1.2 2.4 -5 2 -6.7 0.6 c -2.7 -2.1 -1.8 -6.8 -1.8 -9.5 c 0 -2.3 -0.7 -4.8 -2.9 -5.9 c -2.5 -1.2 -5.7 0.2 -7.1 2.5 c -1.8 2.9 -1.6 7.8 -1.4 11 c 0.1 2.3 0.8 4.6 2.1 6.6 c 1.4 2.1 3.7 3.4 6.1 3.6 c 1.5 0.1 3.1 -0.2 4.2 0.7 c 1.4 1.1 0.9 3 0.9 4.6 c 0.1 3.2 2.9 6 6.1 7.4 s 6.9 1.6 10.4 1.8 c 3 -4.8 3.2 -10.4 3.4 -15.8 C 359.9 289 359.9 286.7 360.1 284.3 z" stroke-linecap="round"/>
</clipPath>
<path style="stroke: rgb(25,3,77); stroke-width: 1; stroke-dasharray: none; stroke-linecap: butt; stroke-dashoffset: 0; stroke-linejoin: miter; stroke-miterlimit: 10; is-custom-font: none; font-file-url: none; fill: none; fill-rule: nonzero; opacity: 1;" transform=" translate(-342.6406, -279.5939)" d="M 351 289.2 c -3.9 0.6 -8.2 1.2 -11.6 -0.7 c -2 -1.2 -3.5 -3.1 -4.2 -5.3 c -0.7 -2.1 -1 -4.4 -0.9 -6.6 c 0 -2.4 0.2 -4.8 0.6 -7.2" stroke-linecap="round"/>
</g>
<g transform="matrix(2.1853 0 0 2.1853 842.3051 645.9788)" id="OBJEKTS" clip-path="url(#CLIPPATH_36)">
<clipPath id="CLIPPATH_36">
	<path transform="matrix(1 0 0 1 -12.7404 5.8053) translate(-351.8985, -267.6054)" id="SVGID_7_" d="M 360.1 284.3 c 0.3 -1.9 0.9 -3.6 2.5 -4.5 c 2.2 -1.3 5 -0.2 7.6 -0.7 c 7.1 -1.3 7 -11.2 6.9 -16.6 c -0.1 -3.5 -0.2 -6.9 -0.5 -10.4 c 0 -0.9 -0.2 -1.8 -0.6 -2.6 c -1 -1.4 -2.8 -1.9 -4.4 -1.4 c -3.1 0.9 -4.8 4.2 -5.4 7.4 s -0.3 6.5 -1.1 9.6 c -0.1 0.6 -0.4 1.2 -0.7 1.7 c -0.4 0.6 -0.9 1 -1.5 1.3 c -0.9 0.5 -2 0.5 -2.9 0 c -1 -0.6 -0.8 -1.4 -0.8 -2.4 c 0 -1.2 -0.1 -2.3 -0.3 -3.5 c -0.3 -2.6 -0.6 -5.2 -0.8 -7.8 c -0.5 -5.1 -0.9 -10.2 -1.4 -15.4 c -0.1 -2.4 -0.7 -4.7 -1.7 -6.9 c -5.1 -9.1 -12.8 -1.1 -13.5 5.5 c -1.6 15.1 6.2 29.3 5.6 44.3 c 0 0.6 -0.1 1.3 -0.4 1.9 c -1.2 2.4 -5 2 -6.7 0.6 c -2.7 -2.1 -1.8 -6.8 -1.8 -9.5 c 0 -2.3 -0.7 -4.8 -2.9 -5.9 c -2.5 -1.2 -5.7 0.2 -7.1 2.5 c -1.8 2.9 -1.6 7.8 -1.4 11 c 0.1 2.3 0.8 4.6 2.1 6.6 c 1.4 2.1 3.7 3.4 6.1 3.6 c 1.5 0.1 3.1 -0.2 4.2 0.7 c 1.4 1.1 0.9 3 0.9 4.6 c 0.1 3.2 2.9 6 6.1 7.4 s 6.9 1.6 10.4 1.8 c 3 -4.8 3.2 -10.4 3.4 -15.8 C 359.9 289 359.9 286.7 360.1 284.3 z" stroke-linecap="round"/>
</clipPath>
<path style="stroke: rgb(25,3,77); stroke-width: 1; stroke-dasharray: none; stroke-linecap: butt; stroke-dashoffset: 0; stroke-linejoin: miter; stroke-miterlimit: 10; is-custom-font: none; font-file-url: none; fill: none; fill-rule: nonzero; opacity: 1;" transform=" translate(-364.6389, -261.8)" d="M 355 276.6 c 5 -0.7 9.8 -2 14.5 -3.8 c 1 -0.3 1.9 -0.8 2.7 -1.5 c 0.7 -0.8 1.2 -1.8 1.4 -2.8 c 0.7 -2.3 1 -17.8 0.2 -21.5" stroke-linecap="round"/>
</g>
<g transform="matrix(2.1853 0 0 2.1853 812.7184 749.3443)" id="OBJEKTS">
<polygon style="stroke: none; stroke-width: 1; stroke-dasharray: none; stroke-linecap: butt; stroke-dashoffset: 0; stroke-linejoin: miter; stroke-miterlimit: 4; is-custom-font: none; font-file-url: none; fill: rgb(245,186,0); fill-rule: nonzero; opacity: 1;" points="-14.7,-10.3 14.7,-10.9 11.7,10.9 -10.7,10.9 "/>
</g>
<g transform="matrix(2.1853 0 0 2.1853 629.1512 769.9956)" id="OBJEKTS">
<path style="stroke: none; stroke-width: 1; stroke-dasharray: none; stroke-linecap: butt; stroke-dashoffset: 0; stroke-linejoin: miter; stroke-miterlimit: 4; is-custom-font: none; font-file-url: none; fill: rgb(255,255,255); fill-rule: nonzero; opacity: 1;" transform=" translate(-267.1, -318.55)" d="M 205.2 315.6 H 329 c 1.4 0 2.5 1.1 2.5 2.5 v 0.9 c 0 1.4 -1.1 2.5 -2.5 2.5 H 205.2 c -1.4 0 -2.5 -1.1 -2.5 -2.5 v -0.9 C 202.7 316.7 203.8 315.6 205.2 315.6 z" stroke-linecap="round"/>
</g>
<g transform="matrix(2.1853 0 0 2.1853 660.9516 703.0153)" id="OBJEKTS">
<path style="stroke: none; stroke-width: 1; stroke-dasharray: none; stroke-linecap: butt; stroke-dashoffset: 0; stroke-linejoin: miter; stroke-miterlimit: 4; is-custom-font: none; font-file-url: none; fill: rgb(255,255,255); fill-rule: nonzero; opacity: 1;" transform=" translate(-281.6519, -287.9)" d="M 331.9 321.4 h -110 l 9.6 -63.2 c 0.3 -2.2 2.2 -3.8 4.4 -3.8 h 101.3 c 2.4 0 4.3 2 4.2 4.3 c 0 0.2 0 0.4 -0.1 0.7 L 331.9 321.4 z" stroke-linecap="round"/>
</g>
<g transform="matrix(2.1853 0 0 2.1853 672.4213 693.1818)" id="OBJEKTS">
<circle style="stroke: rgb(6,72,179); stroke-width: 2; stroke-dasharray: none; stroke-linecap: butt; stroke-dashoffset: 0; stroke-linejoin: miter; stroke-miterlimit: 10; is-custom-font: none; font-file-url: none; fill: none; fill-rule: nonzero; opacity: 1;" cx="0" cy="0" r="5.3"/>
</g>
<g transform="matrix(2.1853 0 0 2.1853 695.0953 580.0915)" id="OBJEKTS">
<path style="stroke: rgb(255,255,255); stroke-width: 2; stroke-dasharray: none; stroke-linecap: butt; stroke-dashoffset: 0; stroke-linejoin: miter; stroke-miterlimit: 10; is-custom-font: none; font-file-url: none; fill: none; fill-rule: nonzero; opacity: 1;" transform=" translate(-297.2757, -231.65)" d="M 292.3 249.5 c -0.7 -2.9 -1 -5.9 -1 -8.8 s 0.5 -5 2.4 -7.2 c 1.4 -1.7 3 -3.2 4.7 -4.6 c 4.4 -3.7 6 -9.8 4 -15.1" stroke-linecap="round"/>
</g>
<g transform="matrix(2.1853 0 0 2.1853 719.9066 551.0267)" id="OBJEKTS">
<path style="stroke: rgb(255,255,255); stroke-width: 2; stroke-dasharray: none; stroke-linecap: butt; stroke-dashoffset: 0; stroke-linejoin: miter; stroke-miterlimit: 10; is-custom-font: none; font-file-url: none; fill: none; fill-rule: nonzero; opacity: 1;" transform=" translate(-308.6293, -218.35)" d="M 301.6 241 c -0.6 -2.5 0.8 -5 2.5 -6.9 s 3.9 -3.4 5.4 -5.4 c 3.2 -4.4 3.1 -8.5 2.5 -16.7 c -0.4 -5.8 -0.3 -12.3 3.8 -16.3" stroke-linecap="round"/>
</g>
<g transform="matrix(2.1853 0 0 2.1853 501.3089 779.2832)" id="OBJEKTS">
<path style="stroke: none; stroke-width: 1; stroke-dasharray: none; stroke-linecap: butt; stroke-dashoffset: 0; stroke-linejoin: miter; stroke-miterlimit: 4; is-custom-font: none; font-file-url: none; fill: rgb(38,43,64); fill-rule: nonzero; opacity: 1;" transform=" translate(-208.6, -322.8)" d="M 48.9 319.3 h 319.4 c 1.7 0 3 1.3 3 3 v 1 c 0 1.7 -1.3 3 -3 3 H 48.9 c -1.7 0 -3 -1.3 -3 -3 v -1 C 45.9 320.6 47.2 319.3 48.9 319.3 z" stroke-linecap="round"/>
</g>
<g transform="matrix(2.1853 0 0 2.1853 897.9024 480.113)" id="OBJEKTS">
<path style="stroke: rgb(225,232,246); stroke-width: 2; stroke-dasharray: none; stroke-linecap: butt; stroke-dashoffset: 0; stroke-linejoin: miter; stroke-miterlimit: 10; is-custom-font: none; font-file-url: none; fill: none; fill-rule: nonzero; opacity: 1;" transform=" translate(-390.0802, -185.9)" d="M 401 137.7 c 2.5 15.7 3.5 32.5 -3.7 46.7 c -4 7.9 -10.3 14.4 -13.9 22.6 c -3.8 8.7 -5.2 17.7 -6.1 27.1" stroke-linecap="round"/>
</g>
<g transform="matrix(2.1853 0 0 2.1853 140.9459 422.3113)" id="OBJEKTS">
<path style="stroke: rgb(225,232,246); stroke-width: 2; stroke-dasharray: none; stroke-linecap: butt; stroke-dashoffset: 0; stroke-linejoin: miter; stroke-miterlimit: 10; is-custom-font: none; font-file-url: none; fill: none; fill-rule: nonzero; opacity: 1;" transform=" translate(-43.697, -159.45)" d="M 77.3 111.5 c -10 12.1 -24.8 18.9 -36.8 29 c -19.6 16.7 -30.7 41.2 -30.4 66.9" stroke-linecap="round"/>
</g>
<g transform="matrix(2.1853 0 0 2.1853 733.6099 134.6151)" id="OBJEKTS">
<path style="stroke: rgb(225,232,246); stroke-width: 2; stroke-dasharray: none; stroke-linecap: butt; stroke-dashoffset: 0; stroke-linejoin: miter; stroke-miterlimit: 10; is-custom-font: none; font-file-url: none; fill: none; fill-rule: nonzero; opacity: 1;" transform=" translate(-314.9, -27.8)" d="M 296.3 11.3 c 16.5 5.3 30 17.3 37.2 33" stroke-linecap="round"/>
</g>
<g transform="matrix(2.1853 0 0 2.1853 282.7792 865.6029)" id="OBJEKTS">
<path style="stroke: rgb(225,232,246); stroke-width: 2; stroke-dasharray: none; stroke-linecap: butt; stroke-dashoffset: 0; stroke-linejoin: miter; stroke-miterlimit: 10; is-custom-font: none; font-file-url: none; fill: none; fill-rule: nonzero; opacity: 1;" transform=" translate(-108.6, -362.3)" d="M 68.7 345.8 c 22.3 19.4 50.3 31 79.8 33" stroke-linecap="round"/>
</g>
<g transform="matrix(2.1853 0 0 2.1853 692.1983 833.479)" id="OBJEKTS">
<path style="stroke: rgb(225,232,246); stroke-width: 2; stroke-dasharray: none; stroke-linecap: butt; stroke-dashoffset: 0; stroke-linejoin: miter; stroke-miterlimit: 10; is-custom-font: none; font-file-url: none; fill: none; fill-rule: nonzero; opacity: 1;" transform=" translate(-295.95, -347.6)" d="M 288.1 351.6 c 5.4 -2.4 10.6 -5.1 15.7 -8" stroke-linecap="round"/>
</g>
<g transform="matrix(2.1853 0 0 2.1853 584.0249 862.3252)" id="OBJEKTS">
<path style="stroke: rgb(225,232,246); stroke-width: 2; stroke-dasharray: none; stroke-linecap: butt; stroke-dashoffset: 0; stroke-linejoin: miter; stroke-miterlimit: 10; is-custom-font: none; font-file-url: none; fill: none; fill-rule: nonzero; opacity: 1;" transform=" translate(-246.45, -360.8)" d="M 215.1 366.3 c 21.3 -0.9 39.7 -2 62.7 -11" stroke-linecap="round"/>
</g>
<g transform="matrix(1 0 0 1 484.0137 256.7537)" style="" id="999041">
		
<path xml:space="preserve" font-family="Lato" font-size="50" font-style="normal" font-weight="bold" style="stroke: none; stroke-width: 1; stroke-dasharray: none; stroke-linecap: butt; stroke-dashoffset: 0; stroke-linejoin: miter; stroke-miterlimit: 4; is-custom-font: none; font-file-url: none; fill: rgb(255,255,255); fill-rule: nonzero; opacity: 1; white-space: pre;" d="M-42.38-35.77L-44.02-38.39Q-42.60-39.54-40.79-40.33Q-38.98-41.12-36.50-41.12L-36.50-41.12Q-34.75-41.12-33.35-40.64Q-31.95-40.17-30.97-39.31Q-30-38.44-29.49-37.23Q-28.97-36.02-28.97-34.54L-28.97-34.54Q-28.97-33.17-29.32-32.18Q-29.67-31.19-30.20-30.46Q-30.72-29.72-31.35-29.19Q-31.97-28.67-32.55-28.21Q-33.13-27.74-33.56-27.29Q-34-26.84-34.13-26.29L-34.13-26.29L-34.67-23.89L-38.90-23.89L-39.33-26.74Q-39.48-27.67-39.19-28.33Q-38.90-28.99-38.39-29.53Q-37.88-30.07-37.24-30.53Q-36.60-30.99-36.04-31.51Q-35.48-32.02-35.09-32.66Q-34.70-33.29-34.70-34.17L-34.70-34.17Q-34.70-35.04-35.30-35.59Q-35.90-36.14-37.05-36.14L-37.05-36.14Q-37.95-36.14-38.56-35.97Q-39.17-35.79-39.63-35.59Q-40.08-35.39-40.41-35.22Q-40.75-35.04-41.13-35.04L-41.13-35.04Q-41.98-35.04-42.38-35.77L-42.38-35.77ZM-40.38-17.54L-40.38-17.54Q-40.38-18.24-40.11-18.87Q-39.85-19.49-39.40-19.96Q-38.95-20.42-38.33-20.68Q-37.70-20.94-36.98-20.94L-36.98-20.94Q-36.27-20.94-35.66-20.68Q-35.05-20.42-34.59-19.96Q-34.13-19.49-33.86-18.87Q-33.60-18.24-33.60-17.54L-33.60-17.54Q-33.60-16.82-33.86-16.21Q-34.13-15.59-34.59-15.14Q-35.05-14.69-35.66-14.43Q-36.27-14.17-36.98-14.17L-36.98-14.17Q-37.70-14.17-38.33-14.43Q-38.95-14.69-39.40-15.14Q-39.85-15.59-40.11-16.21Q-40.38-16.82-40.38-17.54ZM-48.95-9.72L-48.95-45.87L-23.70-45.87L-23.70-9.72L-48.95-9.72ZM-47.33-44.17L-47.33-11.44L-25.50-11.44L-25.50-44.17L-47.33-44.17ZM-15.02-35.77L-16.67-38.39Q-15.25-39.54-13.44-40.33Q-11.62-41.12-9.15-41.12L-9.15-41.12Q-7.40-41.12-6.00-40.64Q-4.60-40.17-3.62-39.31Q-2.65-38.44-2.14-37.23Q-1.62-36.02-1.62-34.54L-1.62-34.54Q-1.62-33.17-1.97-32.18Q-2.32-31.19-2.85-30.46Q-3.37-29.72-4.00-29.19Q-4.62-28.67-5.20-28.21Q-5.77-27.74-6.21-27.29Q-6.65-26.84-6.77-26.29L-6.77-26.29L-7.32-23.89L-11.55-23.89L-11.97-26.74Q-12.12-27.67-11.84-28.33Q-11.55-28.99-11.04-29.53Q-10.52-30.07-9.89-30.53Q-9.25-30.99-8.69-31.51Q-8.12-32.02-7.74-32.66Q-7.35-33.29-7.35-34.17L-7.35-34.17Q-7.35-35.04-7.95-35.59Q-8.55-36.14-9.70-36.14L-9.70-36.14Q-10.60-36.14-11.21-35.97Q-11.82-35.79-12.27-35.59Q-12.72-35.39-13.06-35.22Q-13.40-35.04-13.77-35.04L-13.77-35.04Q-14.62-35.04-15.02-35.77L-15.02-35.77ZM-13.02-17.54L-13.02-17.54Q-13.02-18.24-12.76-18.87Q-12.50-19.49-12.05-19.96Q-11.60-20.42-10.97-20.68Q-10.35-20.94-9.62-20.94L-9.62-20.94Q-8.92-20.94-8.31-20.68Q-7.70-20.42-7.24-19.96Q-6.77-19.49-6.51-18.87Q-6.25-18.24-6.25-17.54L-6.25-17.54Q-6.25-16.82-6.51-16.21Q-6.77-15.59-7.24-15.14Q-7.70-14.69-8.31-14.43Q-8.92-14.17-9.62-14.17L-9.62-14.17Q-10.35-14.17-10.97-14.43Q-11.60-14.69-12.05-15.14Q-12.50-15.59-12.76-16.21Q-13.02-16.82-13.02-17.54ZM-21.60-9.72L-21.60-45.87L3.65-45.87L3.65-9.72L-21.60-9.72ZM-19.97-44.17L-19.97-11.44L1.85-11.44L1.85-44.17L-19.97-44.17Z"/><path xml:space="preserve" font-family="Lato" font-size="50" font-style="normal" font-weight="bold" style="stroke: none; stroke-width: 1; stroke-dasharray: none; stroke-linecap: butt; stroke-dashoffset: 0; stroke-linejoin: miter; stroke-miterlimit: 4; is-custom-font: none; font-file-url: none; fill: rgb(255,255,255); fill-rule: nonzero; opacity: 1; white-space: pre;" d="M-134.25 15.08L-135.90 12.46Q-134.47 11.31-132.66 10.52Q-130.85 9.73-128.38 9.73L-128.38 9.73Q-126.63 9.73-125.22 10.21Q-123.83 10.68-122.85 11.54Q-121.88 12.41-121.36 13.62Q-120.85 14.83-120.85 16.31L-120.85 16.31Q-120.85 17.68-121.20 18.67Q-121.55 19.66-122.08 20.39Q-122.60 21.13-123.22 21.66Q-123.85 22.18-124.42 22.64Q-125 23.11-125.44 23.56Q-125.88 24.01-126 24.56L-126 24.56L-126.55 26.96L-130.78 26.96L-131.20 24.11Q-131.35 23.18-131.06 22.52Q-130.78 21.86-130.26 21.32Q-129.75 20.78-129.11 20.32Q-128.47 19.86-127.91 19.34Q-127.35 18.83-126.96 18.19Q-126.58 17.56-126.58 16.68L-126.58 16.68Q-126.58 15.81-127.17 15.26Q-127.78 14.71-128.93 14.71L-128.93 14.71Q-129.82 14.71-130.44 14.88Q-131.05 15.06-131.50 15.26Q-131.95 15.46-132.29 15.63Q-132.63 15.81-133 15.81L-133 15.81Q-133.85 15.81-134.25 15.08L-134.25 15.08ZM-132.25 33.31L-132.25 33.31Q-132.25 32.61-131.99 31.98Q-131.72 31.36-131.28 30.89Q-130.82 30.43-130.20 30.17Q-129.57 29.91-128.85 29.91L-128.85 29.91Q-128.15 29.91-127.54 30.17Q-126.92 30.43-126.46 30.89Q-126 31.36-125.74 31.98Q-125.47 32.61-125.47 33.31L-125.47 33.31Q-125.47 34.03-125.74 34.64Q-126 35.26-126.46 35.71Q-126.92 36.16-127.54 36.42Q-128.15 36.68-128.85 36.68L-128.85 36.68Q-129.57 36.68-130.20 36.42Q-130.82 36.16-131.28 35.71Q-131.72 35.26-131.99 34.64Q-132.25 34.03-132.25 33.31ZM-140.82 41.13L-140.82 4.98L-115.58 4.98L-115.58 41.13L-140.82 41.13ZM-139.20 6.68L-139.20 39.41L-117.38 39.41L-117.38 6.68L-139.20 6.68ZM-106.90 15.08L-108.55 12.46Q-107.13 11.31-105.31 10.52Q-103.50 9.73-101.03 9.73L-101.03 9.73Q-99.28 9.73-97.88 10.21Q-96.48 10.68-95.50 11.54Q-94.53 12.41-94.01 13.62Q-93.50 14.83-93.50 16.31L-93.50 16.31Q-93.50 17.68-93.85 18.67Q-94.20 19.66-94.73 20.39Q-95.25 21.13-95.88 21.66Q-96.50 22.18-97.08 22.64Q-97.65 23.11-98.09 23.56Q-98.53 24.01-98.65 24.56L-98.65 24.56L-99.20 26.96L-103.43 26.96L-103.85 24.11Q-104 23.18-103.71 22.52Q-103.43 21.86-102.91 21.32Q-102.40 20.78-101.76 20.32Q-101.13 19.86-100.56 19.34Q-100 18.83-99.61 18.19Q-99.23 17.56-99.23 16.68L-99.23 16.68Q-99.23 15.81-99.83 15.26Q-100.43 14.71-101.58 14.71L-101.58 14.71Q-102.48 14.71-103.09 14.88Q-103.70 15.06-104.15 15.26Q-104.60 15.46-104.94 15.63Q-105.28 15.81-105.65 15.81L-105.65 15.81Q-106.50 15.81-106.90 15.08L-106.90 15.08ZM-104.90 33.31L-104.90 33.31Q-104.90 32.61-104.64 31.98Q-104.38 31.36-103.93 30.89Q-103.48 30.43-102.85 30.17Q-102.23 29.91-101.50 29.91L-101.50 29.91Q-100.80 29.91-100.19 30.17Q-99.58 30.43-99.11 30.89Q-98.65 31.36-98.39 31.98Q-98.13 32.61-98.13 33.31L-98.13 33.31Q-98.13 34.03-98.39 34.64Q-98.65 35.26-99.11 35.71Q-99.58 36.16-100.19 36.42Q-100.80 36.68-101.50 36.68L-101.50 36.68Q-102.23 36.68-102.85 36.42Q-103.48 36.16-103.93 35.71Q-104.38 35.26-104.64 34.64Q-104.90 34.03-104.90 33.31ZM-113.48 41.13L-113.48 4.98L-88.23 4.98L-88.23 41.13L-113.48 41.13ZM-111.85 6.68L-111.85 39.41L-90.03 39.41L-90.03 6.68L-111.85 6.68ZM-79.55 15.08L-81.20 12.46Q-79.78 11.31-77.96 10.52Q-76.15 9.73-73.68 9.73L-73.68 9.73Q-71.93 9.73-70.53 10.21Q-69.13 10.68-68.15 11.54Q-67.18 12.41-66.66 13.62Q-66.15 14.83-66.15 16.31L-66.15 16.31Q-66.15 17.68-66.50 18.67Q-66.85 19.66-67.38 20.39Q-67.90 21.13-68.53 21.66Q-69.15 22.18-69.73 22.64Q-70.30 23.11-70.74 23.56Q-71.18 24.01-71.30 24.56L-71.30 24.56L-71.85 26.96L-76.08 26.96L-76.50 24.11Q-76.65 23.18-76.36 22.52Q-76.08 21.86-75.56 21.32Q-75.05 20.78-74.41 20.32Q-73.78 19.86-73.21 19.34Q-72.65 18.83-72.26 18.19Q-71.88 17.56-71.88 16.68L-71.88 16.68Q-71.88 15.81-72.48 15.26Q-73.08 14.71-74.23 14.71L-74.23 14.71Q-75.13 14.71-75.74 14.88Q-76.35 15.06-76.80 15.26Q-77.25 15.46-77.59 15.63Q-77.93 15.81-78.30 15.81L-78.30 15.81Q-79.15 15.81-79.55 15.08L-79.55 15.08ZM-77.55 33.31L-77.55 33.31Q-77.55 32.61-77.29 31.98Q-77.03 31.36-76.58 30.89Q-76.13 30.43-75.50 30.17Q-74.88 29.91-74.15 29.91L-74.15 29.91Q-73.45 29.91-72.84 30.17Q-72.23 30.43-71.76 30.89Q-71.30 31.36-71.04 31.98Q-70.78 32.61-70.78 33.31L-70.78 33.31Q-70.78 34.03-71.04 34.64Q-71.30 35.26-71.76 35.71Q-72.23 36.16-72.84 36.42Q-73.45 36.68-74.15 36.68L-74.15 36.68Q-74.88 36.68-75.50 36.42Q-76.13 36.16-76.58 35.71Q-77.03 35.26-77.29 34.64Q-77.55 34.03-77.55 33.31ZM-86.13 41.13L-86.13 4.98L-60.88 4.98L-60.88 41.13L-86.13 41.13ZM-84.50 6.68L-84.50 39.41L-62.68 39.41L-62.68 6.68L-84.50 6.68ZM-52.20 15.08L-53.85 12.46Q-52.43 11.31-50.61 10.52Q-48.80 9.73-46.33 9.73L-46.33 9.73Q-44.58 9.73-43.18 10.21Q-41.78 10.68-40.80 11.54Q-39.83 12.41-39.31 13.62Q-38.80 14.83-38.80 16.31L-38.80 16.31Q-38.80 17.68-39.15 18.67Q-39.50 19.66-40.03 20.39Q-40.55 21.13-41.18 21.66Q-41.80 22.18-42.38 22.64Q-42.95 23.11-43.39 23.56Q-43.83 24.01-43.95 24.56L-43.95 24.56L-44.50 26.96L-48.73 26.96L-49.15 24.11Q-49.30 23.18-49.01 22.52Q-48.73 21.86-48.21 21.32Q-47.70 20.78-47.06 20.32Q-46.43 19.86-45.86 19.34Q-45.30 18.83-44.91 18.19Q-44.53 17.56-44.53 16.68L-44.53 16.68Q-44.53 15.81-45.13 15.26Q-45.73 14.71-46.88 14.71L-46.88 14.71Q-47.78 14.71-48.39 14.88Q-49.00 15.06-49.45 15.26Q-49.90 15.46-50.24 15.63Q-50.58 15.81-50.95 15.81L-50.95 15.81Q-51.80 15.81-52.20 15.08L-52.20 15.08ZM-50.20 33.31L-50.20 33.31Q-50.20 32.61-49.94 31.98Q-49.68 31.36-49.23 30.89Q-48.78 30.43-48.15 30.17Q-47.53 29.91-46.80 29.91L-46.80 29.91Q-46.10 29.91-45.49 30.17Q-44.88 30.43-44.41 30.89Q-43.95 31.36-43.69 31.98Q-43.43 32.61-43.43 33.31L-43.43 33.31Q-43.43 34.03-43.69 34.64Q-43.95 35.26-44.41 35.71Q-44.88 36.16-45.49 36.42Q-46.10 36.68-46.80 36.68L-46.80 36.68Q-47.53 36.68-48.15 36.42Q-48.78 36.16-49.23 35.71Q-49.68 35.26-49.94 34.64Q-50.20 34.03-50.20 33.31ZM-58.78 41.13L-58.78 4.98L-33.53 4.98L-33.53 41.13L-58.78 41.13ZM-57.15 6.68L-57.15 39.41L-35.33 39.41L-35.33 6.68L-57.15 6.68ZM-24.85 15.08L-26.50 12.46Q-25.08 11.31-23.26 10.52Q-21.45 9.73-18.98 9.73L-18.98 9.73Q-17.23 9.73-15.83 10.21Q-14.43 10.68-13.45 11.54Q-12.48 12.41-11.96 13.62Q-11.45 14.83-11.45 16.31L-11.45 16.31Q-11.45 17.68-11.80 18.67Q-12.15 19.66-12.68 20.39Q-13.20 21.13-13.83 21.66Q-14.45 22.18-15.03 22.64Q-15.60 23.11-16.04 23.56Q-16.48 24.01-16.60 24.56L-16.60 24.56L-17.15 26.96L-21.38 26.96L-21.80 24.11Q-21.95 23.18-21.66 22.52Q-21.38 21.86-20.86 21.32Q-20.35 20.78-19.71 20.32Q-19.08 19.86-18.51 19.34Q-17.95 18.83-17.56 18.19Q-17.18 17.56-17.18 16.68L-17.18 16.68Q-17.18 15.81-17.78 15.26Q-18.38 14.71-19.53 14.71L-19.53 14.71Q-20.43 14.71-21.04 14.88Q-21.65 15.06-22.10 15.26Q-22.55 15.46-22.89 15.63Q-23.23 15.81-23.60 15.81L-23.60 15.81Q-24.45 15.81-24.85 15.08L-24.85 15.08ZM-22.85 33.31L-22.85 33.31Q-22.85 32.61-22.59 31.98Q-22.33 31.36-21.88 30.89Q-21.43 30.43-20.80 30.17Q-20.18 29.91-19.45 29.91L-19.45 29.91Q-18.75 29.91-18.14 30.17Q-17.53 30.43-17.06 30.89Q-16.60 31.36-16.34 31.98Q-16.08 32.61-16.08 33.31L-16.08 33.31Q-16.08 34.03-16.34 34.64Q-16.60 35.26-17.06 35.71Q-17.53 36.16-18.14 36.42Q-18.75 36.68-19.45 36.68L-19.45 36.68Q-20.18 36.68-20.80 36.42Q-21.43 36.16-21.88 35.71Q-22.33 35.26-22.59 34.64Q-22.85 34.03-22.85 33.31ZM-31.43 41.13L-31.43 4.98L-6.18 4.98L-6.18 41.13L-31.43 41.13ZM-29.80 6.68L-29.80 39.41L-7.98 39.41L-7.98 6.68L-29.80 6.68ZM-3.30 37.73L-3.30 37.73Q-3.30 36.96-3.01 36.26Q-2.73 35.56-2.21 35.06Q-1.70 34.56-1.00 34.26Q-0.30 33.96 0.50 33.96L0.50 33.96Q1.27 33.96 1.97 34.26Q2.67 34.56 3.17 35.06Q3.67 35.56 3.97 36.26Q4.27 36.96 4.27 37.73L4.27 37.73Q4.27 38.53 3.97 39.22Q3.67 39.91 3.17 40.41Q2.67 40.91 1.97 41.19Q1.27 41.48 0.50 41.48L0.50 41.48Q-0.30 41.48-1.00 41.19Q-1.70 40.91-2.21 40.41Q-2.73 39.91-3.01 39.22Q-3.30 38.53-3.30 37.73ZM7.95 37.73L7.95 37.73Q7.95 36.96 8.24 36.26Q8.52 35.56 9.04 35.06Q9.55 34.56 10.25 34.26Q10.95 33.96 11.75 33.96L11.75 33.96Q12.52 33.96 13.22 34.26Q13.92 34.56 14.42 35.06Q14.92 35.56 15.22 36.26Q15.52 36.96 15.52 37.73L15.52 37.73Q15.52 38.53 15.22 39.22Q14.92 39.91 14.42 40.41Q13.92 40.91 13.22 41.19Q12.52 41.48 11.75 41.48L11.75 41.48Q10.95 41.48 10.25 41.19Q9.55 40.91 9.04 40.41Q8.52 39.91 8.24 39.22Q7.95 38.53 7.95 37.73ZM19.20 37.73L19.20 37.73Q19.20 36.96 19.49 36.26Q19.77 35.56 20.29 35.06Q20.80 34.56 21.50 34.26Q22.20 33.96 23.00 33.96L23.00 33.96Q23.77 33.96 24.47 34.26Q25.17 34.56 25.67 35.06Q26.17 35.56 26.47 36.26Q26.77 36.96 26.77 37.73L26.77 37.73Q26.77 38.53 26.47 39.22Q26.17 39.91 25.67 40.41Q25.17 40.91 24.47 41.19Q23.77 41.48 23.00 41.48L23.00 41.48Q22.20 41.48 21.50 41.19Q20.80 40.91 20.29 40.41Q19.77 39.91 19.49 39.22Q19.20 38.53 19.20 37.73Z"/></g>
</svg>